<svg width="80" height="80" viewBox="0 0 80 80" fill="none" xmlns="http://www.w3.org/2000/svg">
<path d="M39.8869 16.8945L34.853 32.8404H18.1833L31.8342 42.6404L26.8109 58.7471L39.8869 49.3305L52.9524 58.7471L47.929 42.6404L61.5799 32.8404H44.9102L39.8869 16.8945Z" fill="white"/>
<path d="M39.887 64.2001C35.073 64.1917 30.3695 62.7583 26.3709 60.081C22.3722 57.4037 19.2579 53.6027 17.4214 49.1581C15.585 44.7136 15.1088 39.8251 16.053 35.1104C16.9973 30.3957 19.3197 26.0663 22.7266 22.6694C26.1336 19.2724 30.4723 16.9604 35.1944 16.0254C39.9165 15.0905 44.8101 15.5745 49.2569 17.4164C53.7037 19.2584 57.504 22.3755 60.1777 26.3739C62.8513 30.3722 64.2783 35.0725 64.2784 39.8806C64.2756 43.0771 63.6425 46.2416 62.4152 49.1937C61.1879 52.1458 59.3905 54.8275 57.1256 57.0858C54.8606 59.344 52.1725 61.1346 49.2147 62.3553C46.2569 63.576 43.0874 64.2028 39.887 64.2001ZM39.887 13.7305C34.7099 13.7385 29.6512 15.2792 25.3505 18.1578C21.0497 21.0364 17.6998 25.1238 15.7241 29.9033C13.7485 34.6829 13.2357 39.9402 14.2507 45.0107C15.2656 50.0812 17.7627 54.7375 21.4264 58.391C25.09 62.0445 29.7558 64.5313 34.8341 65.5372C39.9124 66.543 45.1753 66.0227 49.9576 64.0421C54.74 62.0614 58.8272 58.7093 61.7026 54.4093C64.5781 50.1093 66.1128 45.0545 66.1128 39.8836C66.1104 36.4464 65.4302 33.0433 64.1109 29.8687C62.7916 26.6941 60.859 23.8101 58.4237 21.3815C55.9884 18.9529 53.0979 17.0272 49.9173 15.7144C46.7368 14.4017 43.3285 13.7275 39.887 13.7305Z" fill="white"/>
<path d="M33.1151 71.2207L32.7208 73.2123L33.3709 73.34C33.9263 73.4467 34.1595 72.9672 34.2558 72.4667C34.4484 71.5078 34.0526 71.38 33.1151 71.2207Z" fill="white"/>
<path d="M20.253 65.1592L17.0536 69.3783C18.0453 70.2305 18.3659 69.8157 19.01 68.9274L20.6413 66.775C21.2282 65.9979 21.0039 65.7634 20.2575 65.1667L20.253 65.1592Z" fill="white"/>
<path d="M51.5146 70.955C51.1835 70.0397 50.8645 70.0922 49.957 70.3898L51.7057 75.386C52.9638 75.0448 52.8042 74.5338 52.41 73.5117L51.5071 70.9565L51.5146 70.955Z" fill="white"/>
<path d="M75.4777 35.8656L75.3393 34.7578L71.7275 35.7799V35.8009L75.4777 35.8656Z" fill="white"/>
<path d="M9.17224 58.0769L9.75915 59.0358L12.65 56.6489L12.6395 56.6279L9.17224 58.0769Z" fill="white"/>
<path d="M57.1012 68.1099C56.8454 67.6726 56.4992 67.172 55.9499 67.4922C55.4006 67.8123 55.649 68.3655 55.9079 68.8029L57.6144 71.7323C57.8491 72.1366 58.275 72.7123 58.8183 72.3921C59.3615 72.072 59.0426 71.4437 58.8078 71.0394L57.1012 68.1099Z" fill="white"/>
<path d="M4.37366 37.3038L8.12836 37.1009V37.0874L4.4805 36.1855L4.37366 37.3038Z" fill="white"/>
<path d="M9.95015 26.3456C10.2376 26.4838 10.686 26.6657 10.9735 26.4418C11.1353 26.2453 11.2681 26.0266 11.3678 25.7925L11.4641 25.6L9.59801 24.6982C9.38848 25.0166 9.28765 25.3941 9.31057 25.7744C9.44306 26.0403 9.67165 26.246 9.95015 26.3501V26.3456Z" fill="white"/>
<path d="M72.7587 44.1217C71.7881 43.9834 71.6812 44.3772 71.5638 45.3151L73.5789 45.6022L73.6752 44.9529C73.761 44.3982 73.2704 44.2013 72.7587 44.1217Z" fill="white"/>
<path d="M74.5498 51.2783L71.3293 50.16C70.8492 49.9901 70.2623 49.8398 70.0502 50.4366C69.838 51.0333 70.3918 51.2888 70.8719 51.4586L74.0923 52.5664C74.5437 52.7257 75.233 52.8865 75.4467 52.2898C75.6604 51.6931 74.9952 51.4376 74.5437 51.2783H74.5498Z" fill="white"/>
<path d="M78.5061 44.8452C78.3451 44.8807 78.1802 44.8949 78.0155 44.8873C77.2902 44.8121 76.619 44.6738 76.1058 44.6528C75.5926 44.6317 75.242 44.7385 75.1457 45.1849L75.0494 45.8131L78.2804 46.2821L78.0035 48.2L69.8018 47.0171L70.2096 44.2199C70.4339 42.6537 71.1908 41.9653 72.8116 42.1953C73.1986 42.1952 73.5754 42.3194 73.8865 42.5494C74.1975 42.7794 74.4263 43.1031 74.5392 43.4729H74.5603C74.6378 43.2232 74.7987 43.0075 75.0161 42.862C75.2336 42.7165 75.4945 42.6498 75.7552 42.6732C76.4158 42.7153 77.8349 42.9077 78.3677 42.8762C78.4827 42.855 78.5898 42.803 78.6777 42.7259L78.7845 42.7364L78.5076 44.8407L78.5061 44.8452ZM76.8507 52.7918C76.2111 54.6451 75.0584 54.9758 73.2992 54.358L70.1208 53.2608C69.5062 52.9994 69.0139 52.5147 68.7435 51.9046C68.4731 51.2945 68.4447 50.6046 68.6642 49.9745C68.8837 49.3443 69.3346 48.821 69.9258 48.5102C70.5169 48.1995 71.2041 48.1246 71.8485 48.3007L75.0268 49.4084C76.786 50.0097 77.4903 50.9431 76.8507 52.7963V52.7918ZM72.6807 61.015L65.4737 56.9463L67.7311 52.9737L69.1713 53.7944L67.8695 56.0745L69.1487 56.799L70.3436 54.6947L71.7838 55.5154L70.5889 57.6196L73.6393 59.3451L72.6792 61.018L72.6807 61.015ZM67.85 67.0272L63.5625 62.1589L63.5415 62.1694L66.9756 67.8359L65.9222 68.8159L60.5076 64.9996L60.4865 65.0102L65.0509 69.623L63.6965 70.8796L58.0441 64.8403L60.0486 62.9765L64.1223 65.8639L64.1434 65.8534L61.5625 61.5817L63.546 59.7284L69.1983 65.7677L67.8439 67.0348L67.85 67.0272ZM59.5625 73.6843C57.856 74.6643 56.7785 74.1743 55.8409 72.566L54.1449 69.6576C53.8498 69.0571 53.7937 68.3672 53.9882 67.7271C54.1826 67.0869 54.613 66.5444 55.1924 66.2089C55.7719 65.8735 56.4572 65.7702 57.1099 65.9198C57.7627 66.0695 58.3343 66.461 58.7092 67.0152L60.4053 69.9236C61.3443 71.5319 61.2691 72.6938 59.5625 73.6813V73.6843ZM54.3255 75.6232C53.9256 76.0729 53.4023 76.3953 52.8206 76.5506L50.3466 77.4134L47.6197 69.6215L49.6137 68.9286C50.3046 68.6281 51.0605 68.5071 51.8108 68.5769C52.187 68.6859 52.5257 68.8967 52.7892 69.1862C53.0527 69.4756 53.2308 69.8324 53.3037 70.2167L54.5196 73.6738C54.6646 73.9871 54.7231 74.3334 54.6893 74.6769C54.6554 75.0204 54.5303 75.3486 54.327 75.6277L54.3255 75.6232ZM43.7672 78.6053L42.4986 70.4347L46.9034 69.7523L47.1592 71.3816L44.6852 71.7649L44.9199 73.2679L47.3202 72.8952L47.5761 74.5245L45.1758 74.8973L45.4527 76.6648L48.0651 76.2605L48.321 77.8898L43.7672 78.6053ZM41.6874 78.7556L37.102 78.6804L37.2405 70.4136L41.698 70.4888L41.6769 72.1421L39.1712 72.1001L39.1502 73.6227L41.5821 73.6647L41.561 75.3181L39.1291 75.276L39.0975 77.0662L41.7431 77.1082L41.6904 78.7616L41.6874 78.7556ZM36.184 72.6306C36.1654 73.018 36.0211 73.3887 35.773 73.687C35.5249 73.9852 35.1864 74.1948 34.8086 74.284V74.3051C35.055 74.3947 35.2629 74.5667 35.397 74.7918C35.5311 75.0169 35.5832 75.2815 35.5444 75.5406C35.4692 76.2004 35.2028 77.5967 35.2134 78.1393C35.2286 78.2551 35.2726 78.3651 35.3413 78.4595L35.3202 78.5662L33.2405 78.1619C33.2101 78.0002 33.2066 77.8347 33.2299 77.6719C33.3368 76.9474 33.5174 76.2876 33.561 75.7871C33.6046 75.2865 33.5189 74.9243 33.0809 74.8071L32.4519 74.6793L31.8228 77.8748L29.9131 77.5021L31.5128 69.3961L34.2969 69.9387C35.8439 70.2393 36.494 71.0254 36.184 72.6337V72.6306ZM29.0283 73.5686L26.7709 72.6848L25.4797 75.9344L23.6739 75.2204L26.7243 67.5398L30.9801 69.2127L30.3781 70.7473L27.9357 69.7884L27.3924 71.1516L29.6498 72.0354L29.0478 73.57L29.0283 73.5686ZM22.2562 67.8374L20.038 70.7669C19.8537 71.0587 19.5965 71.2976 19.2918 71.4602C18.9871 71.6228 18.6452 71.7034 18.2999 71.6943C17.7053 71.6099 17.1469 71.3587 16.6896 70.9698L14.6084 69.3991L19.6001 62.8052L21.2856 64.0722C21.9151 64.4801 22.4349 65.036 22.7995 65.691C22.9201 66.0638 22.9341 66.4627 22.84 66.843C22.7459 67.2233 22.5474 67.5697 22.2668 67.8434L22.2562 67.8374ZM11.6437 66.4531L14.0651 62.2235H14.0335L10.7228 65.44L9.48573 64.0768L15.6287 58.5275L16.9726 60.008L14.5512 64.2165L14.5723 64.2376L17.883 61L19.12 62.3633L12.9771 67.9126L11.6437 66.4531ZM7.3849 61.0256L8.62192 59.9494L7.83336 58.6492L6.32847 59.288L5.30514 57.6257L13.3247 54.866L14.5407 56.8576L8.39769 62.6955L7.3849 61.0226V61.0256ZM3.31116 52.8549L2.0636 48.4555L10.0395 46.2009L11.2555 50.4726L9.65578 50.9235L8.97256 48.5186L7.50078 48.9335L8.16142 51.2662L6.57226 51.7171L5.91161 49.3844L4.18399 49.8849L4.90935 52.4206L3.30965 52.8715L3.31116 52.8549ZM1.17873 43.6412C1.00867 41.8616 1.89355 41.086 3.56699 40.9252L6.95902 40.6051C7.30921 40.5121 7.67647 40.5034 8.0307 40.5795C8.38493 40.6557 8.71606 40.8146 8.99694 41.0432C9.27783 41.2718 9.50048 41.5637 9.64665 41.8948C9.79282 42.226 9.85835 42.587 9.83788 42.9483C9.99739 44.6017 9.38641 45.6433 7.70544 45.8041L7.01169 45.8688L6.8311 43.9403L7.3533 43.8877C8.05759 43.8231 8.3992 43.536 8.35556 43.1738C8.31342 42.5726 7.96127 42.4598 7.42704 42.5139L3.34276 42.8867C2.89129 42.9288 2.62793 43.1422 2.67158 43.6382C2.73629 44.2981 3.42402 44.2875 3.92967 44.2394L4.68211 44.1643L4.8627 46.0927L3.84991 46.1889C2.4308 46.3392 1.36533 45.6132 1.18324 43.6427L1.17873 43.6412ZM1.28557 37.4787L2.91687 37.3509L3.05533 35.8389L1.46616 35.4661L1.64675 33.5272L9.73103 36.0824L9.51733 38.4046L1.10197 39.4372L1.28256 37.4832L1.28557 37.4787ZM3.24193 27.4548L11.2179 29.6808L10.023 33.9525L8.42328 33.5016L9.09446 31.0967L7.61515 30.6924L6.97557 33.0252L5.37587 32.5742L6.02598 30.2415L4.29837 29.762L3.58354 32.2977L1.98384 31.8468L3.2314 27.4473L3.24193 27.4548ZM6.20657 20.8715L13.6513 24.4938L12.6385 26.5605C12.3074 27.2309 11.7747 28.1793 10.9831 28.3927C10.3487 28.5288 9.68635 28.4215 9.12757 28.0921C8.69784 27.9482 8.31859 27.684 8.03497 27.3309C7.75135 26.9778 7.57533 26.5508 7.52787 26.1006C7.62226 25.3653 7.86932 24.6578 8.25322 24.0234L5.36232 22.618L6.20657 20.8715ZM69.1532 31.002L75.4737 29.021L74.7589 26.7664L76.3376 26.2764L77.6393 30.3888L69.7371 32.8703L69.1502 31.0065L69.1532 31.002ZM67.4301 26.6943L73.3819 23.7648L72.3285 21.6455L73.8108 20.9105L75.7206 24.7779L68.2864 28.4423L67.4301 26.6943ZM78.3195 33.8954L76.7514 34.3854L76.9546 35.8885L78.5859 35.9095L78.8417 37.8379L70.3842 37.1345L70.0742 34.8228L78.0501 31.9475L78.3165 33.9014L78.3195 33.8954ZM72.8266 17.225L64.5181 24.2022C67.3675 28.6023 68.9771 33.6879 69.1776 38.9243C69.378 44.1606 68.162 49.3542 65.6573 53.9587C63.1527 58.5632 59.452 62.4086 54.9444 65.0902C50.4369 67.7719 45.2891 69.1908 40.0425 69.1977C34.7959 69.2046 29.6444 67.7993 25.1298 65.1295C20.6152 62.4597 16.9043 58.6242 14.3875 54.0263C11.8707 49.4284 10.6409 44.238 10.8276 39.0011C11.0142 33.7643 12.6103 28.6744 15.4481 24.2669L8.69265 15.2109C4.08063 21.0098 1.1735 27.975 0.295974 35.3287C-0.581554 42.6824 0.605076 50.135 3.72332 56.854C6.84157 63.5731 11.7686 69.294 17.9542 73.3778C24.1398 77.4615 31.3403 79.7474 38.7514 79.98C46.1626 80.2125 53.4925 78.3827 59.9226 74.6949C66.3527 71.007 71.6296 65.6063 75.1641 59.0961C78.6985 52.5858 80.3512 45.2224 79.9377 37.8281C79.5241 30.4339 77.0605 23.3001 72.8221 17.2235L72.8266 17.225Z" fill="white"/>
<path d="M13.2355 13.1121L13.2566 13.091L17.1497 16.01L16.1038 17.0321L13.2355 13.1121ZM18.5147 20.2696L17.2566 18.5757L18.6636 17.1914L20.3913 18.4269L22.1971 16.6368L12.9691 10.6621L10.8036 12.7919L16.7013 22.0598L18.5071 20.2696H18.5147Z" fill="white"/>
<path d="M24.7205 15.1793L18.701 6.28418L16.5941 7.70156L22.6137 16.5861L24.7205 15.1793Z" fill="white"/>
<path d="M24.1775 5.52795C25.2971 5.01691 25.8088 4.85759 26.3099 6.02847C26.5763 6.62969 26.6831 7.31809 26.0089 7.60517L25.2204 7.94637L24.1745 5.52795H24.1775ZM27.6764 13.6129L25.9909 9.72448L26.7584 9.39381C27.3137 9.20142 27.6613 9.52157 27.9954 10.0972C28.3295 10.6729 28.6244 11.5146 29.0413 12.3518C29.1437 12.5372 29.2691 12.7089 29.4145 12.8629L31.9427 11.7762L31.89 11.6484C31.7466 11.6002 31.618 11.5158 31.5168 11.4034C31.112 10.8277 30.3656 9.14881 29.9593 8.37774C29.8087 8.07355 29.558 7.83032 29.2492 7.68883C28.9404 7.54735 28.5923 7.51622 28.2633 7.60067L28.2527 7.57962C28.59 7.20785 28.7973 6.73675 28.8434 6.23719C28.8895 5.73763 28.772 5.23661 28.5086 4.80949C27.6658 2.85552 26.3867 2.49779 24.4875 3.30644L21.0955 4.75538L25.3513 14.6079L27.6764 13.6069V13.6129Z" fill="white"/>
<mask id="mask0_20121_2315" style="mask-type:luminance" maskUnits="userSpaceOnUse" x="0" y="0" width="80" height="80">
<path d="M79.9895 0H0V79.8919H79.9895V0Z" fill="white"/>
</mask>
<g mask="url(#mask0_20121_2315)">
<path d="M34.7477 11.3763L33.9953 6.9017L37.0878 6.38013L36.7252 4.27586L33.6326 4.79742L33.3121 2.91259L36.683 2.34744L36.3204 0.243164L30.4648 1.22315L32.2571 11.8001L34.7477 11.3763Z" fill="white"/>
</g>
<mask id="mask1_20121_2315" style="mask-type:luminance" maskUnits="userSpaceOnUse" x="0" y="0" width="80" height="80">
<path d="M79.9895 0H0V79.8919H79.9895V0Z" fill="white"/>
</mask>
<g mask="url(#mask1_20121_2315)">
<path d="M41.35 7.72228L41.651 3.32284C41.6932 2.66299 41.8542 1.88441 42.6533 1.93852C43.4855 1.99113 43.4855 2.78023 43.4419 3.44158L43.1409 7.84102C43.0987 8.45877 42.9813 9.36361 42.1597 9.311C41.338 9.2584 41.3064 8.33101 41.3485 7.72378L41.35 7.72228ZM42.0212 11.2379C44.5705 11.4078 45.4975 10.2158 45.6691 7.79743L45.9701 3.43857C46.0396 2.99434 46.0075 2.54016 45.8762 2.11008C45.7449 1.67999 45.5179 1.28516 45.2122 0.955179C44.9064 0.625196 44.5298 0.368622 44.1106 0.20469C43.6915 0.0407572 43.2406 -0.0262806 42.7917 0.00860013C42.3498 -0.0876217 41.8918 -0.0833701 41.4517 0.0210423C41.0116 0.125455 40.6007 0.327356 40.2493 0.611808C39.8979 0.89626 39.615 1.25598 39.4216 1.66437C39.2282 2.07275 39.1291 2.51935 39.1318 2.97112L38.8444 7.339C38.6743 9.74388 39.472 11.0666 42.0212 11.2379Z" fill="white"/>
</g>
<path d="M51.108 3.74873C52.2923 4.11097 52.7724 4.3244 52.3766 5.53887C52.1735 6.16714 51.7897 6.74131 51.0975 6.51886L50.2758 6.25282L51.108 3.74873ZM48.345 12.1012L49.6784 8.08504L50.4669 8.34056C51.0102 8.56452 51.0689 9.03347 50.9184 9.68279C50.7679 10.3321 50.4489 11.1528 50.1931 12.0681C50.1439 12.2737 50.1261 12.4855 50.1404 12.6964L52.7529 13.5592L52.795 13.4209C52.724 13.2898 52.6839 13.1444 52.6776 12.9955C52.7634 12.3026 53.3277 10.5455 53.5309 9.70384C53.6225 9.37665 53.5975 9.02786 53.4603 8.71701C53.3231 8.40616 53.0821 8.15251 52.7784 7.99937L52.789 7.9678C53.9507 7.84004 54.4639 7.14713 54.8266 6.06043C55.4978 4.03581 54.7739 2.92806 52.8116 2.27874L49.3277 1.12891L45.9568 11.3121L48.345 12.1012Z" fill="white"/>
<path d="M55.4262 15.6053C57.6023 17.0002 59.1885 16.4786 60.1937 14.935L60.9085 13.8272L58.7867 12.464L58.2645 13.2846C57.9124 13.8392 57.3615 14.5517 56.6437 14.0842C56.528 14.0293 56.427 13.948 56.3488 13.8467C56.2705 13.7455 56.2172 13.6272 56.1933 13.5016C56.1694 13.376 56.1756 13.2465 56.2113 13.1236C56.2469 13.0008 56.3109 12.8881 56.3984 12.7946L59.2787 8.33205C59.6625 7.74586 60.0462 7.47982 60.7084 7.91721C61.1027 8.17273 61.1238 8.74839 60.6332 9.51495L60.26 10.0906L62.3818 11.4539L62.8724 10.7024C64.0568 8.85962 63.4744 7.39564 61.6565 6.23979C61.3039 5.9291 60.8827 5.70625 60.4273 5.58948C59.9719 5.4727 59.4952 5.46534 59.0364 5.56799C58.5776 5.67063 58.1497 5.88037 57.7877 6.18003C57.4257 6.47968 57.1399 6.86072 56.9537 7.29194L54.5655 10.9985C53.3811 12.8412 53.4774 14.3533 55.4292 15.6113L55.4262 15.6053Z" fill="white"/>
<path d="M63.1812 22.0623L64.7388 20.5817L62.361 18.1107L64.0359 16.513L66.2226 18.7826L67.7802 17.2915L65.5936 15.0219L67.0232 13.6587L69.2806 16.0019L70.8381 14.5214L66.838 10.3564L59.0638 17.7815L63.1812 22.0623Z" fill="white"/>
</svg>
