<svg width="187" height="38" viewBox="0 0 187 38" fill="none" xmlns="http://www.w3.org/2000/svg">
<path d="M0 0V2.27455H24.8688L17.7866 8.11389H0V10.3884H15.0294L0 23.7165V26.6162L18.5705 10.3884H24.8823L0 31.6974V34.5971L31.1941 8.11389H21.3142L31.1671 0H0Z" fill="white"/>
<path d="M0 38.0001H30.6269V35.716H6.25311L30.6269 14.326V11.3433L0 38.0001Z" fill="white"/>
<path d="M59.4876 9H62V27H59.1942V15.8185L54.5545 23.0525H52.4639L47.8058 15.9507V27H45V9H47.5124L53.5275 19.1238L59.4876 9Z" fill="white"/>
<path d="M75.8645 23.2856C76.4276 22.5724 76.7091 21.5589 76.7091 20.2452C76.7091 18.9126 76.4276 17.8803 75.8645 17.1484C75.3014 16.4351 74.4756 16.0598 73.4246 16.0598C72.3923 16.0598 71.5853 16.4351 71.0035 17.1859C70.4216 17.9366 70.1401 18.9689 70.1401 20.2827C70.1401 21.5965 70.4216 22.5912 71.0035 23.3044C71.5853 24.0176 72.3923 24.3555 73.4621 24.3555C74.4944 24.3742 75.3014 24.0176 75.8645 23.2856ZM79.8059 13.9389V26.6452H76.7091V24.5994C76.3337 25.3126 75.7707 25.8569 75.0575 26.2511C74.3443 26.6452 73.5184 26.8517 72.5988 26.8517C71.4914 26.8517 70.5155 26.5889 69.6521 26.0446C68.8075 25.5003 68.1319 24.7496 67.6627 23.7549C67.1934 22.7601 66.9495 21.6153 66.9495 20.3015C66.9495 18.9877 67.1934 17.8428 67.6627 16.8293C68.1319 15.8158 68.8075 15.0275 69.6521 14.4645C70.5155 13.9014 71.4727 13.6199 72.5612 13.6199C73.4809 13.6199 74.3067 13.8263 75.0199 14.2205C75.7331 14.6146 76.2962 15.1589 76.6715 15.8721V13.9577H79.8059V13.9389Z" fill="white"/>
<path d="M92.8308 13.8451L92.812 16.7167C92.2678 16.4915 91.7235 16.3976 91.1416 16.3976C90.0718 16.3976 89.246 16.7167 88.683 17.336C88.1199 17.9554 87.8384 18.7812 87.8384 19.7947V26.664H84.7228V17.5237C84.7228 16.1912 84.6477 14.99 84.5164 13.9202H87.463L87.707 16.1536C88.0261 15.3278 88.5328 14.7084 89.2085 14.2768C89.9029 13.8451 90.6724 13.6199 91.5545 13.6199C92.0613 13.6386 92.4742 13.6949 92.8308 13.8451Z" fill="white"/>
<path d="M109 27H104.951L99.2161 20.9878V27H96V8H99.2161V19.7353L104.621 13.9929H108.535L102.645 20.217L109 27Z" fill="white"/>
<path d="M115.409 16.3047V21.9915C115.409 23.493 116.103 24.225 117.492 24.225C117.867 24.225 118.299 24.1499 118.749 24.0185V26.5147C118.205 26.7212 117.529 26.815 116.741 26.815C115.296 26.815 114.189 26.4209 113.419 25.6138C112.65 24.8068 112.255 23.6431 112.255 22.1417V16.3047H109.816V13.9398H112.255V10.843L115.39 9.79199V13.9398H118.749V16.3047H115.409Z" fill="white"/>
<path d="M126.854 24.3935H137V27H123V24.6201L132.786 11.6065H123V9H136.7V11.3421L126.854 24.3935Z" fill="white"/>
<path d="M141.161 13.9339H143.839V27H141.161V13.9339ZM141 8H144V11.1892H141V8Z" fill="white"/>
<path d="M151.124 26.0256C150.148 25.4813 149.398 24.7306 148.891 23.7546C148.365 22.7787 148.103 21.615 148.103 20.3012C148.103 18.9874 148.365 17.805 148.91 16.8103C149.454 15.7968 150.223 15.0273 151.218 14.4642C152.213 13.9012 153.377 13.6196 154.672 13.6196C155.573 13.6196 156.455 13.7698 157.299 14.0513C158.144 14.3328 158.819 14.727 159.326 15.2337L158.444 17.4484C157.9 17.0167 157.337 16.6789 156.736 16.4537C156.136 16.2284 155.535 16.1158 154.953 16.1158C153.808 16.1158 152.926 16.4724 152.288 17.1856C151.65 17.8988 151.331 18.9311 151.331 20.2637C151.331 21.615 151.65 22.6285 152.269 23.3229C152.889 24.0361 153.79 24.374 154.953 24.374C155.535 24.374 156.136 24.2614 156.736 24.0174C157.337 23.7922 157.9 23.4543 158.444 23.0039L159.326 25.2186C158.782 25.7253 158.087 26.1195 157.243 26.401C156.38 26.6825 155.497 26.8327 154.559 26.8327C153.245 26.8327 152.1 26.5699 151.124 26.0256Z" fill="white"/>
<path d="M174.792 18.8372V26.6261H171.658V18.9874C171.658 17.9739 171.47 17.2419 171.076 16.7914C170.682 16.3222 170.1 16.097 169.293 16.097C168.336 16.097 167.566 16.3973 166.985 17.0167C166.403 17.636 166.103 18.4431 166.103 19.4378V26.6261H162.987V8.13916H166.103V15.7779C166.534 15.0835 167.116 14.558 167.829 14.1826C168.542 13.8072 169.349 13.6196 170.25 13.6196C173.272 13.6196 174.792 15.3463 174.792 18.8372Z" fill="white"/>
<path d="M183.633 16.3034V21.9903C183.633 23.4918 184.327 24.2238 185.716 24.2238C186.091 24.2238 186.523 24.1487 186.973 24.0173V26.5135C186.429 26.72 185.753 26.8138 184.965 26.8138C183.52 26.8138 182.413 26.4197 181.643 25.6126C180.874 24.8056 180.48 23.6419 180.48 22.1404V16.3034H178.04V13.9386H180.48V10.8418L183.614 9.79077V13.9386H186.973V16.3034H183.633Z" fill="white"/>
</svg>
