<svg width="160" height="77" viewBox="0 0 160 77" fill="none" xmlns="http://www.w3.org/2000/svg">
<g clip-path="url(#clip0_1706_558)">
<path d="M12.6981 75.4799H9.51523V62.7362H11.6428C14.9429 62.7362 16.1826 63.3661 17.439 66.9841H17.5228V57.18H17.439C16.1658 60.8464 14.9429 61.7025 11.6428 61.7025H9.51523V49.8955H12.2961C17.2715 49.8955 19.2818 52.3021 21.5265 56.2755H21.6103L20.4879 48.9102H17.5898H0V48.991C1.67522 50.057 1.99351 51.0423 1.99351 53.6266V71.7327C1.99351 74.3331 1.65847 75.3184 0 76.3683V76.449H21.2753L22.3809 68.3408H22.2971C20.0524 72.6049 17.8411 75.4799 12.6981 75.4799Z" fill="white"/>
<path d="M12.6981 75.4799H9.51523V62.7362H11.6428C14.9429 62.7362 16.1826 63.3661 17.439 66.9841H17.5228V57.18H17.439C16.1658 60.8464 14.9429 61.7025 11.6428 61.7025H9.51523V49.8955H12.2961C17.2715 49.8955 19.2818 52.3021 21.5265 56.2755H21.6103L20.4879 48.9102H17.5898H0V48.991C1.67522 50.057 1.99351 51.0423 1.99351 53.6266V71.7327C1.99351 74.3331 1.65847 75.3184 0 76.3683V76.449H21.2753L22.3809 68.3408H22.2971C20.0524 72.6049 17.8411 75.4799 12.6981 75.4799Z" fill="white"/>
<path d="M34.9948 75.4799H33.6043V49.8955H34.8272C39.9366 49.8955 42.6673 54.418 42.6673 62.5746C42.6673 71.1835 39.9366 75.4799 34.9948 75.4799ZM35.0283 48.9102H24.0891V48.991C25.7643 50.057 26.0826 51.0423 26.0826 53.6266V71.7327C26.0826 74.3331 25.7476 75.3184 24.0891 76.3683V76.449H35.3633C43.9404 76.449 50.7586 72.0396 50.7586 62.5585C50.7586 53.3197 44.0577 48.9102 35.0283 48.9102Z" fill="white"/>
<path d="M34.9948 75.4799H33.6043V49.8955H34.8272C39.9366 49.8955 42.6673 54.418 42.6673 62.5746C42.6673 71.1835 39.9366 75.4799 34.9948 75.4799ZM35.0283 48.9102H24.0891V48.991C25.7643 50.057 26.0826 51.0423 26.0826 53.6266V71.7327C26.0826 74.3331 25.7476 75.3184 24.0891 76.3683V76.449H35.3633C43.9404 76.449 50.7586 72.0396 50.7586 62.5585C50.7586 53.3197 44.0577 48.9102 35.0283 48.9102Z" fill="white"/>
<path d="M52.2988 48.991C53.974 50.057 54.2923 51.0423 54.2923 53.6266V71.7327C54.2923 74.3331 53.9573 75.3184 52.2988 76.3844V76.4652H63.8243V76.3844C62.1156 75.3184 61.8308 74.3331 61.8308 71.7327V53.6427C61.8308 51.0423 62.1156 50.057 63.8243 49.0072V48.9102H52.3156V48.991H52.2988Z" fill="white"/>
<path d="M52.2988 48.991C53.974 50.057 54.2923 51.0423 54.2923 53.6266V71.7327C54.2923 74.3331 53.9573 75.3184 52.2988 76.3844V76.4652H63.8243V76.3844C62.1156 75.3184 61.8308 74.3331 61.8308 71.7327V53.6427C61.8308 51.0423 62.1156 50.057 63.8243 49.0072V48.9102H52.3156V48.991H52.2988Z" fill="white"/>
<path d="M88.2666 48.9102H69.0016H66.1369L65.0815 58.359H65.1653C68.231 52.609 69.8559 49.8632 73.8597 49.8632H74.8816V71.8619C74.8816 74.4624 74.3958 75.2538 72.553 76.3844V76.4652H84.7151V76.3844C82.8724 75.2376 82.3865 74.4624 82.3865 71.8619V49.8632H83.4084C87.4122 49.8632 89.0874 52.6252 92.1028 58.359H92.1866L91.1647 48.9102H88.2666Z" fill="white"/>
<path d="M88.2666 48.9102H69.0016H66.1369L65.0815 58.359H65.1653C68.231 52.609 69.8559 49.8632 73.8597 49.8632H74.8816V71.8619C74.8816 74.4624 74.3958 75.2538 72.553 76.3844V76.4652H84.7151V76.3844C82.8724 75.2376 82.3865 74.4624 82.3865 71.8619V49.8632H83.4084C87.4122 49.8632 89.0874 52.6252 92.1028 58.359H92.1866L91.1647 48.9102H88.2666Z" fill="white"/>
<path d="M93.5105 48.991C95.1857 50.057 95.504 51.0423 95.504 53.6266V71.7327C95.504 74.3331 95.169 75.3184 93.5105 76.3844V76.4652H105.036V76.3844C103.327 75.3184 103.042 74.3331 103.042 71.7327V53.6427C103.042 51.0423 103.327 50.057 105.036 49.0072V48.9102H93.5272V48.991H93.5105Z" fill="white"/>
<path d="M93.5105 48.991C95.1857 50.057 95.504 51.0423 95.504 53.6266V71.7327C95.504 74.3331 95.169 75.3184 93.5105 76.3844V76.4652H105.036V76.3844C103.327 75.3184 103.042 74.3331 103.042 71.7327V53.6427C103.042 51.0423 103.327 50.057 105.036 49.0072V48.9102H93.5272V48.991H93.5105Z" fill="white"/>
<path d="M119.828 76.0803C116.025 76.0803 114.853 71.2024 114.853 62.7066C114.853 54.2108 116.042 49.3329 119.828 49.3329C123.664 49.3329 124.854 54.2108 124.854 62.7066C124.854 71.1863 123.664 76.0803 119.828 76.0803ZM119.828 48.5254C112.189 48.5254 106.644 54.4208 106.644 62.6905C106.644 70.9602 112.189 76.8556 119.828 76.8556C127.467 76.8556 133.062 70.9602 133.062 62.6905C133.062 54.4208 127.467 48.5254 119.828 48.5254Z" fill="white"/>
<path d="M119.828 76.0803C116.025 76.0803 114.853 71.2024 114.853 62.7066C114.853 54.2108 116.042 49.3329 119.828 49.3329C123.664 49.3329 124.854 54.2108 124.854 62.7066C124.854 71.1863 123.664 76.0803 119.828 76.0803ZM119.828 48.5254C112.189 48.5254 106.644 54.4208 106.644 62.6905C106.644 70.9602 112.189 76.8556 119.828 76.8556C127.467 76.8556 133.062 70.9602 133.062 62.6905C133.062 54.4208 127.467 48.5254 119.828 48.5254Z" fill="white"/>
<path d="M152.996 48.991C155.157 50.0086 156.012 51.6722 156.012 55.3225V64.9328L144.704 48.9102H134.703V48.991C136.378 50.057 136.696 51.0423 136.696 53.6266V70.7797C136.696 73.6548 135.842 75.3022 133.999 76.3683V76.449H141.018V76.3683C138.857 75.3507 137.953 73.6871 137.953 70.0368V52.5767L154.973 76.5782H157.302V54.5795C157.302 51.7045 158.122 50.057 159.948 48.991V48.9102H152.963V48.991H152.996Z" fill="white"/>
<path d="M152.996 48.991C155.157 50.0086 156.012 51.6722 156.012 55.3225V64.9328L144.704 48.9102H134.703V48.991C136.378 50.057 136.696 51.0423 136.696 53.6266V70.7797C136.696 73.6548 135.842 75.3022 133.999 76.3683V76.449H141.018V76.3683C138.857 75.3507 137.953 73.6871 137.953 70.0368V52.5767L154.973 76.5782H157.302V54.5795C157.302 51.7045 158.122 50.057 159.948 48.991V48.9102H152.963V48.991H152.996Z" fill="white"/>
<path d="M90.2111 5.96386C90.2111 8.27356 89.3735 10.0018 88.1338 11.2132C89.4237 11.407 90.6801 11.9723 91.702 12.9737C92.7909 14.0236 93.394 15.3642 93.3772 16.7209C93.3605 18.1584 92.6904 19.5313 91.434 20.6943C90.8476 21.2434 90.1106 21.6472 89.3064 21.9703L89.7085 22.2125C90.2446 22.6002 90.3618 22.7132 90.8141 23.1009C92.9584 24.9583 94.0808 27.6557 94.0976 30.9022C94.0976 31.629 94.0306 32.3559 93.8965 33.0504L98.1013 43.1937H98.4196L108.303 15.7518L118.137 43.1937H118.455L131.354 7.90207C132.728 4.15486 134.303 1.87746 136.481 0.488406V0.375344H126.211V0.488406C128.657 1.57057 129.713 3.2019 129.713 5.18857C129.713 6.02846 129.528 6.93296 129.21 7.90207L122.761 26.1859L116.629 7.2883C116.194 6.02846 115.942 4.99475 115.942 4.02564C115.942 2.52353 116.696 1.42521 118.321 0.472254V0.359192H100.983V0.472254C102.993 1.92591 103.931 3.54109 105.238 7.11063L107.432 13.1352L102.926 25.9274L96.0408 7.2883C95.6053 6.02846 95.287 4.93014 95.287 3.91258C95.287 2.45892 95.9738 1.37675 97.4815 0.472254V0.359192H86.1235C88.2678 1.3606 90.2111 3.57339 90.2111 5.96386Z" fill="white"/>
<path d="M90.2111 5.96386C90.2111 8.27356 89.3735 10.0018 88.1338 11.2132C89.4237 11.407 90.6801 11.9723 91.702 12.9737C92.7909 14.0236 93.394 15.3642 93.3772 16.7209C93.3605 18.1584 92.6904 19.5313 91.434 20.6943C90.8476 21.2434 90.1106 21.6472 89.3064 21.9703L89.7085 22.2125C90.2446 22.6002 90.3618 22.7132 90.8141 23.1009C92.9584 24.9583 94.0808 27.6557 94.0976 30.9022C94.0976 31.629 94.0306 32.3559 93.8965 33.0504L98.1013 43.1937H98.4196L108.303 15.7518L118.137 43.1937H118.455L131.354 7.90207C132.728 4.15486 134.303 1.87746 136.481 0.488406V0.375344H126.211V0.488406C128.657 1.57057 129.713 3.2019 129.713 5.18857C129.713 6.02846 129.528 6.93296 129.21 7.90207L122.761 26.1859L116.629 7.2883C116.194 6.02846 115.942 4.99475 115.942 4.02564C115.942 2.52353 116.696 1.42521 118.321 0.472254V0.359192H100.983V0.472254C102.993 1.92591 103.931 3.54109 105.238 7.11063L107.432 13.1352L102.926 25.9274L96.0408 7.2883C95.6053 6.02846 95.287 4.93014 95.287 3.91258C95.287 2.45892 95.9738 1.37675 97.4815 0.472254V0.359192H86.1235C88.2678 1.3606 90.2111 3.57339 90.2111 5.96386Z" fill="white"/>
<path d="M58.631 10.5189V23.2465C59.1671 22.245 59.8372 21.2921 60.6078 20.4522V18.0617V10.5189C60.6078 4.9788 61.9144 2.47528 65.1811 0.924708V0.811646H64.6115H54.5937H54.0242V0.924708C57.3411 2.47528 58.631 4.9788 58.631 10.5189Z" fill="white"/>
<path d="M58.631 10.5189V23.2465C59.1671 22.245 59.8372 21.2921 60.6078 20.4522V18.0617V10.5189C60.6078 4.9788 61.9144 2.47528 65.1811 0.924708V0.811646H64.6115H54.5937H54.0242V0.924708C57.3411 2.47528 58.631 4.9788 58.631 10.5189Z" fill="white"/>
<path d="M34.9611 43.0488C31.6107 41.4659 30.2202 38.9139 30.2202 33.2447V6.01278L56.5714 43.178H60.1731V40.9491C60.1396 40.9006 60.0894 40.8683 60.0559 40.8198C56.8562 37.218 55.7003 32.4209 56.5379 27.85C56.7557 26.6709 57.1242 25.508 57.61 24.3773L40.6568 0.343506H25.1778V0.47272C27.7744 2.1202 28.277 3.63847 28.277 7.66026V34.4076C28.277 38.8493 26.9536 41.4175 24.1057 43.0649V43.1941H34.9779V43.0488H34.9611Z" fill="white"/>
<path d="M34.9611 43.0488C31.6107 41.4659 30.2202 38.9139 30.2202 33.2447V6.01278L56.5714 43.178H60.1731V40.9491C60.1396 40.9006 60.0894 40.8683 60.0559 40.8198C56.8562 37.218 55.7003 32.4209 56.5379 27.85C56.7557 26.6709 57.1242 25.508 57.61 24.3773L40.6568 0.343506H25.1778V0.47272C27.7744 2.1202 28.277 3.63847 28.277 7.66026V34.4076C28.277 38.8493 26.9536 41.4175 24.1057 43.0649V43.1941H34.9779V43.0488H34.9611Z" fill="white"/>
<path d="M64.4289 8.64369C64.4457 8.90212 64.4792 9.16055 64.5462 9.41898C64.8142 10.6788 65.367 11.874 66.3219 12.7947C67.327 13.78 68.7175 14.4906 70.0241 15.0236C71.5653 15.6697 73.2741 16.1058 74.966 16.1058C70.644 16.1058 65.9366 17.7533 62.6699 20.4668C57.7448 24.5693 57.192 32.2091 60.3581 37.4746C63.9096 43.4185 72.1182 44.3876 78.5007 43.4669C85.1346 42.4978 92.0867 37.6684 92.0867 30.6101C92.0867 25.0216 88.1667 21.2098 80.4105 22.0012C83.4091 21.4682 87.9825 21.4197 89.9592 19.5946C91.8522 17.8502 91.7685 15.702 90.1938 14.1838C88.1165 12.1809 84.7493 12.504 82.8731 14.2484C83.0238 14.1191 83.7107 14.2968 83.8782 14.3453C84.2467 14.4422 84.5818 14.6198 84.8833 14.846C85.4194 15.2498 85.8382 15.7666 85.8884 16.445C85.9387 17.1395 85.6037 17.721 85.1011 18.1894C83.9619 19.2877 82.6888 19.8853 81.0638 20.5637C79.3048 21.2905 77.5794 21.9043 75.9712 22.8896C74.497 23.7941 73.2406 25.0377 72.4029 26.5399C71.2638 28.6073 71.0125 31.1108 71.9339 33.2913C73.1233 36.1179 76.7585 38.8314 80.0419 37.4261C81.2983 36.877 82.2197 35.811 82.471 34.5027C82.7558 32.9844 82.27 31.3369 81.1308 30.2386C81.1978 30.3032 81.0806 30.8847 81.0471 30.9493C80.3267 33.4205 77.4118 34.325 75.0665 33.6466C73.6594 33.2428 72.6542 32.0476 72.5202 30.6101C72.4029 29.1726 73.2741 27.7512 74.497 26.976C75.5859 26.2814 77.2443 26.2168 78.5007 26.3137C79.9079 26.4268 81.2983 26.8629 82.4877 27.6059C83.9954 28.5427 85.1681 29.9317 85.8549 31.5146C86.6088 33.2751 86.6088 35.1487 85.9219 36.9416C85.8884 37.0224 85.8549 37.1031 85.8214 37.1839C83.4426 42.7724 74.2959 42.6109 70.3257 38.9121C66.6234 35.4718 66.0036 29.8671 67.7123 25.3446C68.0809 24.3594 68.5332 23.2934 69.153 22.4373C70.4094 20.6606 72.0679 19.1746 73.9776 18.0602C74.7818 17.5918 75.6361 17.188 76.524 16.8649C76.9763 16.7034 77.4286 16.5581 77.8977 16.4288C78.3165 16.3158 79.0703 16.122 79.1876 16.122C78.8525 16.122 78.5007 15.9766 78.1824 15.8797C77.7971 15.7666 77.4118 15.6213 77.06 15.4436C75.8539 14.8298 74.9325 13.8284 74.2624 12.6978C73.9274 12.1325 73.6426 11.5187 73.4248 10.8888C73.207 10.2427 73.006 9.51589 72.9223 8.83752C72.7882 7.86841 72.872 6.867 73.1735 5.9302C73.6929 4.23426 74.8655 2.90981 76.3732 1.95686C76.7418 1.71458 77.1438 1.50461 77.5459 1.32694C79.2881 0.519353 81.8679 1.05236 82.8395 2.76445C83.2416 3.49128 83.3924 4.34732 83.2583 5.15491C83.1076 6.04326 82.6218 6.8347 81.9684 7.46461C81.3151 8.09453 80.4942 8.62754 79.6399 8.93443C79.2713 9.06364 78.9028 9.1767 78.5175 9.24131C78.1322 9.30592 77.8306 9.35437 77.4453 9.28976C77.3448 9.27361 77.1438 9.19285 77.0265 9.09594C77.6296 10.6465 79.2378 12.084 82.3872 12.0194C85.3189 12.0194 88.351 10.3235 88.351 6.31784C88.351 4.1212 86.5753 2.61908 84.7493 1.55307C82.0689 0.00249588 79.4389 -0.0136556 76.6915 0.00249622C73.8939 0.00249622 70.7445 0.30938 68.2652 1.63382C65.6351 3.05518 64.2111 5.73637 64.4289 8.64369Z" fill="white"/>
<path d="M64.4289 8.64369C64.4457 8.90212 64.4792 9.16055 64.5462 9.41898C64.8142 10.6788 65.367 11.874 66.3219 12.7947C67.327 13.78 68.7175 14.4906 70.0241 15.0236C71.5653 15.6697 73.2741 16.1058 74.966 16.1058C70.644 16.1058 65.9366 17.7533 62.6699 20.4668C57.7448 24.5693 57.192 32.2091 60.3581 37.4746C63.9096 43.4185 72.1182 44.3876 78.5007 43.4669C85.1346 42.4978 92.0867 37.6684 92.0867 30.6101C92.0867 25.0216 88.1667 21.2098 80.4105 22.0012C83.4091 21.4682 87.9825 21.4197 89.9592 19.5946C91.8522 17.8502 91.7685 15.702 90.1938 14.1838C88.1165 12.1809 84.7493 12.504 82.8731 14.2484C83.0238 14.1191 83.7107 14.2968 83.8782 14.3453C84.2467 14.4422 84.5818 14.6198 84.8833 14.846C85.4194 15.2498 85.8382 15.7666 85.8884 16.445C85.9387 17.1395 85.6037 17.721 85.1011 18.1894C83.9619 19.2877 82.6888 19.8853 81.0638 20.5637C79.3048 21.2905 77.5794 21.9043 75.9712 22.8896C74.497 23.7941 73.2406 25.0377 72.4029 26.5399C71.2638 28.6073 71.0125 31.1108 71.9339 33.2913C73.1233 36.1179 76.7585 38.8314 80.0419 37.4261C81.2983 36.877 82.2197 35.811 82.471 34.5027C82.7558 32.9844 82.27 31.3369 81.1308 30.2386C81.1978 30.3032 81.0806 30.8847 81.0471 30.9493C80.3267 33.4205 77.4118 34.325 75.0665 33.6466C73.6594 33.2428 72.6542 32.0476 72.5202 30.6101C72.4029 29.1726 73.2741 27.7512 74.497 26.976C75.5859 26.2814 77.2443 26.2168 78.5007 26.3137C79.9079 26.4268 81.2983 26.8629 82.4877 27.6059C83.9954 28.5427 85.1681 29.9317 85.8549 31.5146C86.6088 33.2751 86.6088 35.1487 85.9219 36.9416C85.8884 37.0224 85.8549 37.1031 85.8214 37.1839C83.4426 42.7724 74.2959 42.6109 70.3257 38.9121C66.6234 35.4718 66.0036 29.8671 67.7123 25.3446C68.0809 24.3594 68.5332 23.2934 69.153 22.4373C70.4094 20.6606 72.0679 19.1746 73.9776 18.0602C74.7818 17.5918 75.6361 17.188 76.524 16.8649C76.9763 16.7034 77.4286 16.5581 77.8977 16.4288C78.3165 16.3158 79.0703 16.122 79.1876 16.122C78.8525 16.122 78.5007 15.9766 78.1824 15.8797C77.7971 15.7666 77.4118 15.6213 77.06 15.4436C75.8539 14.8298 74.9325 13.8284 74.2624 12.6978C73.9274 12.1325 73.6426 11.5187 73.4248 10.8888C73.207 10.2427 73.006 9.51589 72.9223 8.83752C72.7882 7.86841 72.872 6.867 73.1735 5.9302C73.6929 4.23426 74.8655 2.90981 76.3732 1.95686C76.7418 1.71458 77.1438 1.50461 77.5459 1.32694C79.2881 0.519353 81.8679 1.05236 82.8395 2.76445C83.2416 3.49128 83.3924 4.34732 83.2583 5.15491C83.1076 6.04326 82.6218 6.8347 81.9684 7.46461C81.3151 8.09453 80.4942 8.62754 79.6399 8.93443C79.2713 9.06364 78.9028 9.1767 78.5175 9.24131C78.1322 9.30592 77.8306 9.35437 77.4453 9.28976C77.3448 9.27361 77.1438 9.19285 77.0265 9.09594C77.6296 10.6465 79.2378 12.084 82.3872 12.0194C85.3189 12.0194 88.351 10.3235 88.351 6.31784C88.351 4.1212 86.5753 2.61908 84.7493 1.55307C82.0689 0.00249588 79.4389 -0.0136556 76.6915 0.00249622C73.8939 0.00249622 70.7445 0.30938 68.2652 1.63382C65.6351 3.05518 64.2111 5.73637 64.4289 8.64369Z" fill="white"/>
</g>
<defs>
<clipPath id="clip0_1706_558">
<rect width="160" height="77" fill="white"/>
</clipPath>
</defs>
</svg>
