<svg width="242" height="242" viewBox="0 0 242 242" fill="none" xmlns="http://www.w3.org/2000/svg">
<g clip-path="url(#clip0_174_237)">
<path d="M0 241.75V0H242V242H0V241.75ZM6.02 4.33C4.27 4.86 3.74 6.69 4.32 7.93C4.9 9.17 6.2 9.82 7.59 9.39C8.9 8.98 9.78 7.56 9.26 6.01C8.91 4.95 7.66 3.83 6.01 4.33H6.02ZM19.69 4.26C18.1 4.6 17.23 6.18 17.64 7.6C18.05 9.02 19.47 9.88 21.07 9.38C22.27 9.01 23.22 7.61 22.72 6.04C22.38 4.97 21.19 3.94 19.68 4.27L19.69 4.26ZM33.01 4.31C31.23 4.8 30.57 6.54 31.24 7.97C31.74 9.04 32.98 9.87 34.55 9.37C35.62 9.03 36.67 7.65 36.19 6.06C35.89 5.05 34.66 3.85 33.01 4.3V4.31ZM46.7 4.25C45.02 4.58 44.12 5.97 44.54 7.62C44.84 8.81 46.28 9.91 47.99 9.37C49 9.05 50.15 7.73 49.64 6.18C49.29 5.11 48.21 3.96 46.71 4.25H46.7ZM59.99 4.29C58.24 4.68 57.58 6.25 57.98 7.68C58.33 8.91 59.67 9.77 61.12 9.43C62.43 9.12 63.4 8.01 63.1 6.3C62.92 5.29 61.68 3.91 59.99 4.29ZM73.08 4.38C71.44 4.99 70.95 6.69 71.57 8.08C72.07 9.21 73.47 9.85 74.99 9.31C76.14 8.9 76.94 7.54 76.43 5.92C76.13 4.97 74.68 3.78 73.08 4.38ZM86.57 4.35C84.84 4.96 84.43 6.82 84.91 7.86C85.58 9.29 86.92 9.77 88.15 9.39C89.62 8.93 90.38 7.42 89.86 5.91C89.5 4.87 88.11 3.8 86.57 4.35ZM100.05 4.33C98.25 4.9 97.88 6.71 98.38 7.88C98.96 9.25 100.29 9.79 101.63 9.38C102.97 8.97 103.8 7.5 103.31 5.92C102.99 4.9 101.63 3.82 100.05 4.32V4.33ZM113.51 4.32C111.78 4.83 111.27 6.68 111.82 7.95C112.37 9.22 113.71 9.8 115.09 9.38C116.4 8.99 117.25 7.57 116.75 6C116.42 4.95 115.17 3.82 113.51 4.31V4.32ZM127.19 4.26C125.6 4.59 124.75 6.17 125.15 7.6C125.53 8.95 126.95 9.87 128.58 9.38C129.72 9.04 130.68 7.57 130.22 6.05C129.89 4.97 128.68 3.96 127.19 4.27V4.26ZM140.7 4.25C139.04 4.58 138.17 6.05 138.59 7.62C138.93 8.89 140.27 9.93 142.04 9.38C143.07 9.06 144.15 7.69 143.67 6.08C143.37 5.08 142.16 3.97 140.7 4.26V4.25ZM154.2 4.25C152.43 4.56 151.58 6.13 152.03 7.69C152.39 8.97 153.76 9.74 155.18 9.45C156.5 9.18 157.43 7.94 157.13 6.31C156.93 5.24 155.74 3.99 154.2 4.25ZM167.49 4.29C165.76 4.68 165.05 6.25 165.46 7.68C165.8 8.89 167.15 9.77 168.62 9.43C169.9 9.13 170.9 8.02 170.59 6.31C170.41 5.31 169.19 3.91 167.49 4.29ZM180.58 4.38C178.95 4.98 178.41 6.67 179.05 8.08C179.55 9.18 180.93 9.87 182.48 9.3C183.59 8.89 184.42 7.56 183.92 5.92C183.63 4.97 182.2 3.77 180.58 4.37V4.38ZM194.08 4.35C192.28 4.98 191.91 6.77 192.41 7.88C193.05 9.29 194.42 9.76 195.65 9.4C197.14 8.96 197.85 7.45 197.35 5.92C197.01 4.88 195.6 3.82 194.08 4.35ZM207.71 4.28C206.08 4.67 205.38 6.29 205.74 7.53C206.2 9.1 207.65 9.85 209.12 9.38C210.49 8.95 211.33 7.48 210.81 5.94C210.45 4.88 209.15 3.93 207.7 4.28H207.71ZM221.01 4.33C219.28 4.84 218.73 6.68 219.3 7.96C219.84 9.16 221.18 9.83 222.58 9.4C223.86 9 224.74 7.61 224.24 6.03C223.91 4.98 222.68 3.84 221 4.34L221.01 4.33ZM234.7 4.26C233.06 4.6 232.23 6.11 232.65 7.61C233.02 8.94 234.42 9.89 236.08 9.38C237.2 9.04 238.18 7.58 237.72 6.05C237.4 4.97 236.18 3.95 234.7 4.26ZM6.01 17.78C4.26 18.33 3.74 20.17 4.34 21.42C4.94 22.67 6.25 23.26 7.59 22.84C8.93 22.42 9.77 20.96 9.29 19.49C8.93 18.38 7.65 17.27 6.01 17.78ZM19.5 17.77C17.76 18.29 17.17 20.12 17.78 21.44C18.31 22.58 19.61 23.27 21.06 22.83C22.26 22.47 23.17 21.01 22.74 19.51C22.43 18.43 21.15 17.27 19.5 17.76V17.77ZM32.99 17.76C31.19 18.26 30.57 20.01 31.25 21.46C31.74 22.51 32.99 23.32 34.53 22.83C35.63 22.48 36.65 21.08 36.2 19.55C35.88 18.49 34.65 17.31 32.99 17.76ZM46.5 17.74C44.73 18.2 44.11 19.79 44.56 21.13C45.01 22.47 46.33 23.21 47.64 22.9C49.08 22.56 49.95 21.34 49.66 19.77C49.45 18.64 48.22 17.3 46.5 17.74ZM59.55 17.84C57.95 18.5 57.51 20.24 58.14 21.56C58.68 22.68 60.17 23.31 61.5 22.79C62.83 22.27 63.47 20.93 62.96 19.38C62.61 18.33 61.21 17.16 59.54 17.84H59.55ZM73.04 17.82C71.41 18.44 70.94 20.16 71.6 21.56C72.09 22.6 73.57 23.34 74.98 22.76C76.12 22.29 76.95 20.94 76.45 19.38C76.13 18.38 74.67 17.19 73.04 17.82ZM86.53 17.8C84.78 18.39 84.43 20.3 84.93 21.35C85.58 22.71 87 23.22 88.13 22.86C89.65 22.37 90.36 20.85 89.87 19.38C89.51 18.29 88.09 17.27 86.52 17.8H86.53ZM100.03 17.79C98.22 18.38 97.85 20.19 98.39 21.38C98.99 22.7 100.33 23.24 101.62 22.86C103.05 22.44 103.77 20.95 103.32 19.42C103 18.34 101.61 17.28 100.04 17.79H100.03ZM113.49 17.78C111.74 18.3 111.27 20.16 111.85 21.42C112.43 22.68 113.74 23.26 115.09 22.84C116.44 22.42 117.23 20.97 116.77 19.49C116.42 18.37 115.16 17.27 113.5 17.77L113.49 17.78ZM127.18 17.71C125.53 18.06 124.73 19.58 125.16 21.09C125.53 22.4 126.96 23.33 128.55 22.83C129.74 22.46 130.67 21.02 130.23 19.53C129.89 18.4 128.67 17.4 127.18 17.72V17.71ZM140.49 17.76C138.69 18.25 138.06 19.98 138.75 21.46C139.23 22.5 140.49 23.31 141.99 22.82C143.15 22.44 144.13 21.13 143.69 19.54C143.39 18.47 142.16 17.31 140.49 17.76ZM153.59 17.85C151.94 18.55 151.57 20.24 152.21 21.5C152.85 22.76 154.24 23.3 155.53 22.79C156.82 22.28 157.55 20.89 157.01 19.35C156.64 18.29 155.22 17.16 153.59 17.86V17.85ZM167.06 17.84C165.44 18.5 164.99 20.21 165.65 21.56C166.18 22.66 167.65 23.32 169.01 22.78C170.26 22.28 171 20.95 170.48 19.38C170.13 18.33 168.74 17.16 167.07 17.84H167.06ZM180.55 17.82C178.92 18.45 178.38 20.14 179.08 21.56C179.57 22.56 181.02 23.36 182.46 22.75C183.56 22.28 184.42 20.96 183.93 19.38C183.63 18.4 182.16 17.19 180.55 17.81V17.82ZM194.04 17.79C192.21 18.4 191.93 20.24 192.43 21.36C193.05 22.76 194.43 23.21 195.64 22.85C197.14 22.4 197.86 20.87 197.38 19.39C197.03 18.31 195.58 17.28 194.05 17.79H194.04ZM207.69 17.73C206.06 18.12 205.36 19.76 205.75 21.02C206.22 22.55 207.69 23.28 209.11 22.84C210.53 22.4 211.31 20.92 210.82 19.42C210.46 18.3 209.14 17.38 207.69 17.73ZM221 17.78C219.25 18.31 218.74 20.16 219.32 21.43C219.87 22.63 221.19 23.27 222.58 22.85C223.87 22.46 224.7 21 224.25 19.5C223.92 18.4 222.64 17.28 220.99 17.78H221ZM234.68 17.71C233.02 18.06 232.22 19.57 232.65 21.09C233.02 22.4 234.43 23.33 236.05 22.83C237.21 22.47 238.17 21.02 237.73 19.53C237.39 18.4 236.16 17.4 234.68 17.71ZM5.99 31.24C4.2 31.8 3.76 33.62 4.36 34.86C4.96 36.1 6.27 36.68 7.53 36.28C8.93 35.84 9.73 34.37 9.3 32.96C8.94 31.78 7.62 30.72 5.99 31.23V31.24ZM19.08 31.36C17.42 32.13 17.18 34.03 18 35.23C18.72 36.27 20.14 36.74 21.35 36.14C22.65 35.51 23.21 33.96 22.61 32.63C22.09 31.48 20.62 30.65 19.08 31.36ZM32.55 31.33C30.88 32.08 30.6 33.99 31.45 35.26C32.13 36.27 33.5 36.76 34.83 36.12C36.03 35.54 36.7 34.01 36.08 32.66C35.56 31.54 34.11 30.63 32.55 31.33ZM46.06 31.32C44.42 32.02 44.1 33.77 44.73 34.99C45.36 36.21 46.82 36.72 48.02 36.24C49.45 35.67 50.01 34.25 49.56 32.8C49.2 31.65 47.66 30.63 46.05 31.32H46.06ZM59.54 31.3C57.92 31.98 57.52 33.7 58.2 34.99C58.79 36.1 60.2 36.79 61.49 36.22C62.78 35.65 63.47 34.28 62.99 32.85C62.61 31.71 61.2 30.6 59.54 31.3ZM73.17 31.21C71.5 31.7 70.88 33.46 71.64 35.05C72.12 36.07 73.63 36.77 74.96 36.21C76.16 35.7 76.95 34.33 76.46 32.88C76.07 31.72 74.74 30.75 73.17 31.21ZM86.51 31.26C84.72 31.89 84.41 33.74 84.94 34.84C85.59 36.18 87.02 36.64 88.12 36.31C89.68 35.84 90.33 34.26 89.87 32.88C89.47 31.68 88.12 30.69 86.5 31.26H86.51ZM100 31.25C98.21 31.85 97.83 33.68 98.4 34.86C99.01 36.12 100.4 36.66 101.58 36.3C103.07 35.84 103.74 34.36 103.32 32.9C102.98 31.74 101.62 30.71 100 31.26V31.25ZM113.48 31.23C111.71 31.77 111.3 33.62 111.87 34.86C112.44 36.1 113.78 36.66 115.02 36.28C116.44 35.84 117.18 34.38 116.77 32.97C116.43 31.79 115.11 30.73 113.48 31.23ZM126.59 31.35C124.93 32.13 124.69 34.02 125.5 35.24C126.2 36.3 127.59 36.75 128.85 36.14C130.11 35.53 130.71 33.98 130.1 32.65C129.58 31.51 128.11 30.63 126.59 31.35ZM140.06 31.33C138.37 32.09 138.07 33.96 138.94 35.26C139.61 36.25 140.96 36.76 142.32 36.11C143.51 35.55 144.16 34.03 143.56 32.66C143.07 31.53 141.6 30.63 140.06 31.33ZM153.55 31.32C151.92 32.01 151.59 33.77 152.22 34.99C152.85 36.21 154.3 36.71 155.52 36.24C156.95 35.68 157.49 34.27 157.05 32.81C156.7 31.65 155.17 30.64 153.55 31.33V31.32ZM167.03 31.3C165.4 31.97 164.98 33.69 165.67 34.99C166.25 36.08 167.66 36.78 168.97 36.21C170.22 35.68 170.96 34.29 170.47 32.85C170.09 31.73 168.68 30.61 167.02 31.3H167.03ZM180.49 31.28C178.85 31.89 178.39 33.61 179.1 35.05C179.58 36.03 181.05 36.78 182.44 36.21C183.61 35.73 184.4 34.37 183.93 32.88C183.58 31.76 182.23 30.63 180.49 31.27V31.28ZM194 31.26C192.22 31.87 191.91 33.74 192.44 34.85C193.07 36.18 194.52 36.64 195.62 36.31C197.18 35.84 197.82 34.27 197.38 32.88C196.99 31.67 195.63 30.7 194 31.26ZM207.5 31.25C205.71 31.84 205.31 33.67 205.89 34.86C206.51 36.11 207.87 36.68 209.09 36.3C210.52 35.85 211.28 34.33 210.83 32.92C210.46 31.75 209.13 30.71 207.5 31.26V31.25ZM220.98 31.24C219.2 31.78 218.76 33.6 219.36 34.86C219.92 36.05 221.26 36.66 222.52 36.27C223.92 35.84 224.67 34.39 224.27 32.96C223.93 31.76 222.64 30.73 220.98 31.23V31.24ZM234.08 31.35C232.42 32.11 232.19 34.02 233 35.23C233.71 36.29 235.07 36.74 236.35 36.12C237.63 35.5 238.22 33.98 237.6 32.64C237.08 31.5 235.62 30.64 234.08 31.35ZM5.58 44.84C3.92 45.7 3.78 47.56 4.56 48.67C5.34 49.78 6.77 50.13 7.86 49.59C9.29 48.89 9.74 47.28 9.16 46.03C8.58 44.78 7.07 44.07 5.57 44.84H5.58ZM19.03 44.82C17.39 45.59 17.17 47.53 18.01 48.71C18.74 49.74 20.17 50.13 21.33 49.58C22.7 48.93 23.18 47.37 22.61 46.1C22.04 44.83 20.61 44.07 19.03 44.82ZM32.52 44.81C30.88 45.56 30.56 47.49 31.48 48.73C32.17 49.67 33.6 50.16 34.81 49.58C36.11 48.95 36.67 47.42 36.09 46.14C35.51 44.86 34.13 44.07 32.52 44.81ZM46.18 44.71C44.56 45.28 43.99 47.13 44.75 48.48C45.39 49.62 46.95 50.13 48 49.68C49.47 49.06 50.01 47.6 49.58 46.28C49.15 44.96 47.67 44.18 46.18 44.71ZM59.49 44.76C57.83 45.4 57.53 47.18 58.21 48.48C58.81 49.62 60.22 50.14 61.42 49.66C62.85 49.09 63.44 47.72 63.03 46.3C62.68 45.09 61.16 44.11 59.49 44.76ZM73.15 44.67C71.47 45.18 70.85 46.94 71.67 48.49C72.23 49.55 73.62 50.16 74.89 49.65C76.25 49.11 76.9 47.77 76.46 46.35C76.07 45.1 74.71 44.19 73.15 44.67ZM86.49 44.72C84.71 45.36 84.41 47.22 84.97 48.32C85.65 49.66 87.04 50.05 88.06 49.74C89.74 49.22 90.34 47.71 89.9 46.36C89.48 45.09 88.11 44.14 86.5 44.73L86.49 44.72ZM99.59 44.85C97.95 45.7 97.89 47.62 98.6 48.66C99.43 49.87 100.87 50.06 101.9 49.6C103.45 48.91 103.76 47.27 103.19 46C102.62 44.73 101.07 44.09 99.59 44.85ZM113.05 44.83C111.4 45.64 111.32 47.57 112.07 48.67C112.82 49.77 114.29 50.1 115.37 49.59C116.8 48.91 117.22 47.27 116.66 46.04C116.1 44.81 114.57 44.09 113.06 44.83H113.05ZM126.52 44.83C124.89 45.58 124.68 47.54 125.52 48.71C126.25 49.73 127.68 50.15 128.83 49.59C130.19 48.93 130.67 47.37 130.11 46.12C129.55 44.87 128.12 44.09 126.52 44.84V44.83ZM140.02 44.81C138.38 45.56 138.06 47.48 138.97 48.74C139.65 49.68 141.06 50.17 142.3 49.58C143.54 48.99 144.13 47.44 143.57 46.14C143.01 44.84 141.62 44.08 140.02 44.81ZM153.52 44.78C151.91 45.48 151.55 47.26 152.24 48.47C152.86 49.57 154.41 50.13 155.5 49.68C156.95 49.08 157.47 47.63 157.07 46.28C156.7 45.05 155.14 44.09 153.53 44.78H153.52ZM167.16 44.69C165.49 45.21 164.92 47.01 165.7 48.48C166.29 49.58 167.73 50.19 168.97 49.67C170.31 49.1 170.93 47.69 170.51 46.31C170.14 45.06 168.7 44.21 167.16 44.69ZM180.47 44.74C178.83 45.36 178.39 47.09 179.14 48.5C179.68 49.52 181.05 50.18 182.37 49.64C183.69 49.1 184.4 47.83 183.93 46.36C183.56 45.18 182.19 44.08 180.46 44.74H180.47ZM193.6 44.87C191.96 45.74 191.95 47.67 192.63 48.65C193.51 49.92 194.96 50.03 195.92 49.61C197.56 48.89 197.84 47.23 197.23 45.99C196.62 44.75 195.08 44.09 193.61 44.87H193.6ZM207.09 44.85C205.44 45.7 205.36 47.61 206.1 48.65C206.94 49.85 208.36 50.08 209.4 49.59C210.92 48.89 211.3 47.25 210.71 45.99C210.12 44.73 208.58 44.08 207.1 44.84L207.09 44.85ZM220.56 44.83C218.88 45.66 218.78 47.54 219.56 48.68C220.34 49.82 221.76 50.11 222.86 49.59C224.27 48.93 224.72 47.29 224.15 46.04C223.58 44.79 222.05 44.09 220.56 44.83ZM234.02 44.82C232.39 45.56 232.17 47.53 233.01 48.71C233.72 49.72 235.17 50.13 236.33 49.58C237.68 48.93 238.17 47.37 237.61 46.11C237.05 44.85 235.61 44.09 234.02 44.82ZM5.54 58.29C3.84 59.15 3.81 61.04 4.6 62.15C5.39 63.26 6.83 63.56 7.87 63.06C9.35 62.34 9.75 60.68 9.2 59.5C8.61 58.22 7.04 57.54 5.55 58.29H5.54ZM19.03 58.28C17.33 59.13 17.22 60.99 18.06 62.17C18.82 63.23 20.22 63.6 21.34 63.05C22.75 62.36 23.19 60.75 22.65 59.54C22.08 58.26 20.56 57.52 19.04 58.28H19.03ZM32.49 58.25C30.84 59.03 30.6 60.97 31.5 62.19C32.21 63.15 33.61 63.62 34.79 63.03C36.14 62.36 36.63 60.83 36.09 59.6C35.51 58.29 34.1 57.48 32.49 58.24V58.25ZM46.14 58.16C44.63 58.7 43.98 60.43 44.75 61.92C45.29 62.97 46.87 63.7 48.2 63.01C49.43 62.37 50.1 60.85 49.56 59.64C48.96 58.31 47.64 57.62 46.13 58.16H46.14ZM59.65 58.12C57.98 58.68 57.42 60.49 58.23 61.96C58.81 63.03 60.32 63.58 61.4 63.12C62.88 62.5 63.42 61.12 63.04 59.77C62.66 58.42 61.15 57.62 59.66 58.12H59.65ZM72.58 58.34C71.09 59.22 70.97 61.07 71.89 62.28C72.62 63.24 74.11 63.59 75.22 62.96C76.57 62.18 76.93 60.71 76.32 59.41C75.77 58.25 74.08 57.46 72.58 58.35V58.34ZM86.1 58.32C84.41 59.27 84.51 61.12 85.19 62.08C86.11 63.37 87.55 63.48 88.42 63.08C90.13 62.27 90.31 60.61 89.76 59.45C89.14 58.15 87.52 57.54 86.1 58.33V58.32ZM99.57 58.29C97.94 59.19 97.9 61.12 98.62 62.13C99.47 63.33 100.9 63.52 101.88 63.06C103.46 62.33 103.73 60.67 103.19 59.46C102.62 58.19 101 57.48 99.56 58.28L99.57 58.29ZM113.04 58.27C111.36 59.13 111.33 61.03 112.09 62.15C112.85 63.27 114.31 63.56 115.35 63.05C116.82 62.34 117.21 60.69 116.67 59.5C116.09 58.22 114.54 57.49 113.04 58.26V58.27ZM126.52 58.26C124.83 59.1 124.72 60.98 125.55 62.16C126.29 63.21 127.7 63.59 128.82 63.04C130.22 62.35 130.66 60.75 130.12 59.54C129.58 58.33 128.04 57.5 126.52 58.26ZM140.18 58.16C138.65 58.78 138.06 60.48 138.8 61.9C139.41 63.06 140.95 63.66 142.24 63.02C143.61 62.34 144.13 60.87 143.59 59.6C143.05 58.33 141.61 57.58 140.19 58.15L140.18 58.16ZM153.66 58.14C152.04 58.72 151.5 60.59 152.26 61.96C152.89 63.1 154.43 63.55 155.43 63.14C156.99 62.5 157.45 61.05 157.07 59.77C156.66 58.4 155.18 57.6 153.66 58.14ZM166.97 58.2C165.3 58.87 164.95 60.63 165.71 61.96C166.3 62.99 167.78 63.59 168.89 63.12C170.36 62.51 170.91 61.14 170.52 59.77C170.16 58.5 168.62 57.53 166.97 58.2ZM180.08 58.35C178.58 59.21 178.42 61.05 179.39 62.27C180.11 63.19 181.58 63.6 182.72 62.95C184.05 62.19 184.39 60.73 183.81 59.43C183.27 58.23 181.62 57.46 180.09 58.34L180.08 58.35ZM193.58 58.31C191.94 59.23 191.95 61.15 192.67 62.1C193.59 63.32 195.02 63.5 195.91 63.08C197.58 62.29 197.81 60.62 197.24 59.46C196.61 58.17 195.04 57.5 193.58 58.32V58.31ZM207.06 58.3C205.42 59.2 205.37 61.11 206.11 62.14C206.96 63.31 208.39 63.54 209.37 63.06C210.91 62.31 211.27 60.64 210.71 59.48C210.09 58.2 208.53 57.48 207.06 58.29V58.3ZM220.54 58.28C218.84 59.14 218.78 61.02 219.58 62.16C220.38 63.3 221.78 63.57 222.85 63.06C224.3 62.37 224.7 60.71 224.17 59.51C223.6 58.23 222.03 57.53 220.54 58.28ZM234 58.28C232.37 59.06 232.18 61.01 233.03 62.19C233.76 63.19 235.2 63.6 236.31 63.05C237.71 62.35 238.15 60.8 237.62 59.59C237.03 58.26 235.62 57.5 234 58.27V58.28ZM5.69 71.64C4.04 72.38 3.76 74.21 4.44 75.37C5.23 76.72 6.8 77.02 8.09 76.37C9.25 75.79 9.75 74.2 9.21 73.01C8.64 71.73 7.12 70.99 5.69 71.64ZM19.17 71.63C17.53 72.35 17.19 74.17 17.89 75.38C18.65 76.7 20.17 77.05 21.53 76.33C22.63 75.75 23.19 74.27 22.67 73.03C22.15 71.79 20.62 70.99 19.17 71.62V71.63ZM32.64 71.61C31.01 72.26 30.62 74.1 31.35 75.39C32.05 76.61 33.55 77.12 35 76.33C35.97 75.8 36.61 74.3 36.13 73.12C35.57 71.76 34.19 71 32.64 71.61ZM45.58 71.86C44.06 72.84 44.23 74.83 45.02 75.76C45.97 76.87 47.47 76.96 48.52 76.28C49.8 75.46 50.08 73.76 49.26 72.5C48.61 71.5 46.99 70.95 45.59 71.85L45.58 71.86ZM59.06 71.82C57.53 72.78 57.61 74.77 58.47 75.78C59.33 76.79 60.85 76.98 61.99 76.27C63.13 75.56 63.52 73.82 62.71 72.55C62.08 71.56 60.48 70.94 59.06 71.83V71.82ZM72.54 71.81C71 72.73 71.03 74.73 71.94 75.79C72.76 76.75 74.25 77.03 75.46 76.26C76.56 75.55 76.97 73.87 76.18 72.57C75.58 71.58 74 70.93 72.54 71.81ZM86.07 71.77C84.46 72.72 84.53 74.42 85.06 75.32C85.86 76.67 87.55 77.01 88.64 76.41C90 75.66 90.32 74.14 89.78 72.95C89.2 71.68 87.53 70.91 86.07 71.77ZM99.53 71.75C97.97 72.61 97.95 74.46 98.48 75.33C99.34 76.75 100.89 77.01 102.11 76.39C103.33 75.77 103.71 74.16 103.23 72.98C102.71 71.7 101.06 70.91 99.53 71.75ZM113.18 71.64C111.55 72.36 111.3 74.22 111.95 75.37C112.72 76.74 114.3 77.01 115.59 76.36C116.74 75.78 117.21 74.2 116.7 73.01C116.15 71.71 114.62 71 113.18 71.63V71.64ZM126.68 71.63C125.04 72.34 124.7 74.16 125.4 75.39C126.14 76.68 127.68 77.07 129.03 76.35C130.11 75.77 130.69 74.29 130.16 73.06C129.63 71.83 128.12 71.01 126.68 71.64V71.63ZM140.15 71.6C138.55 72.23 138.22 73.93 138.69 75.07C139.35 76.65 140.96 77 142.18 76.47C143.67 75.82 144.08 74.2 143.47 72.85C142.95 71.69 141.55 71.05 140.14 71.6H140.15ZM153.08 71.85C151.57 72.82 151.73 74.83 152.52 75.75C153.46 76.84 154.95 76.96 156.02 76.27C157.26 75.47 157.55 73.75 156.75 72.51C156.11 71.51 154.48 70.96 153.08 71.85ZM166.57 71.83C165.03 72.79 165.07 74.76 165.96 75.79C166.85 76.82 168.33 77 169.48 76.27C170.63 75.54 171.02 73.84 170.2 72.56C169.57 71.57 168 70.93 166.56 71.83H166.57ZM180.04 71.8C178.48 72.74 178.48 74.7 179.43 75.8C180.24 76.74 181.71 77.05 182.96 76.26C184.05 75.57 184.45 73.9 183.67 72.58C183.08 71.59 181.5 70.92 180.05 71.8H180.04ZM193.52 71.77C191.97 72.69 191.89 74.65 192.9 75.8C193.65 76.65 195.11 77.1 196.41 76.23C197.38 75.59 197.9 73.92 197.12 72.64C196.52 71.66 194.98 70.92 193.52 71.78V71.77ZM207.04 71.75C205.43 72.63 205.41 74.41 205.98 75.34C206.83 76.73 208.38 77.02 209.61 76.39C210.84 75.76 211.28 74.17 210.74 73C210.15 71.74 208.58 70.91 207.04 71.75ZM220.68 71.63C219.03 72.36 218.77 74.19 219.44 75.37C220.21 76.72 221.77 77.03 223.08 76.37C224.22 75.8 224.7 74.22 224.19 73.02C223.64 71.73 222.12 71 220.68 71.63ZM234.15 71.62C232.51 72.29 232.21 74.16 232.89 75.39C233.61 76.69 235.16 77.07 236.52 76.33C237.58 75.76 238.19 74.28 237.66 73.04C237.13 71.8 235.62 71.01 234.15 71.62ZM5.51 85.21C3.88 86.09 3.83 87.85 4.47 88.82C5.34 90.15 6.83 90.45 8.04 89.8C9.25 89.15 9.73 87.64 9.23 86.47C8.66 85.13 7.06 84.37 5.51 85.21ZM18.62 85.38C17.19 86.41 17.35 88.23 18.11 89.16C19.06 90.32 20.66 90.42 21.82 89.59C22.98 88.76 23.17 87.25 22.51 86.18C21.74 84.92 20.04 84.37 18.62 85.39V85.38ZM32.1 85.35C30.68 86.35 30.77 88.19 31.57 89.18C32.44 90.25 34.07 90.5 35.27 89.58C36.28 88.81 36.57 87.32 35.97 86.25C35.23 84.94 33.56 84.33 32.1 85.35ZM45.56 85.33C44.14 86.26 44.16 88.16 45.03 89.2C45.9 90.24 47.47 90.53 48.75 89.56C49.7 88.84 50.07 87.36 49.45 86.27C48.71 84.96 47.1 84.32 45.56 85.33ZM59.05 85.3C57.52 86.28 57.61 88.28 58.49 89.26C59.37 90.24 60.9 90.4 61.98 89.73C63.22 88.96 63.49 87.22 62.73 86C62.08 84.95 60.45 84.39 59.04 85.29L59.05 85.3ZM72.51 85.27C70.99 86.21 71.03 88.22 71.95 89.28C72.77 90.22 74.28 90.44 75.43 89.71C76.58 88.98 76.93 87.28 76.18 86.04C75.55 84.99 73.94 84.37 72.5 85.26L72.51 85.27ZM86.05 85.24C84.45 86.19 84.54 87.9 85.09 88.81C85.88 90.13 87.6 90.44 88.64 89.85C90.03 89.07 90.28 87.52 89.81 86.42C89.21 85.01 87.55 84.35 86.05 85.24ZM99.67 85.13C98.06 85.86 97.85 87.77 98.51 88.82C99.37 90.19 100.97 90.42 102.11 89.84C103.41 89.18 103.67 87.55 103.25 86.46C102.69 85.02 101.12 84.48 99.67 85.14V85.13ZM113.16 85.11C111.54 85.83 111.28 87.71 111.97 88.83C112.79 90.18 114.31 90.44 115.53 89.8C116.75 89.16 117.2 87.65 116.7 86.49C116.13 85.14 114.58 84.48 113.16 85.11ZM126.12 85.38C124.69 86.4 124.87 88.23 125.62 89.16C126.56 90.33 128.16 90.42 129.32 89.58C130.48 88.74 130.66 87.24 130.01 86.18C129.25 84.92 127.53 84.37 126.12 85.38ZM139.61 85.34C138.08 86.41 138.33 88.32 139.09 89.22C140.05 90.35 141.62 90.33 142.53 89.76C143.92 88.88 144.05 87.13 143.29 85.97C142.6 84.92 140.92 84.43 139.6 85.35L139.61 85.34ZM153.06 85.31C151.55 86.31 151.72 88.31 152.53 89.24C153.45 90.3 154.99 90.37 156 89.74C157.31 88.92 157.52 87.18 156.76 85.99C156.09 84.94 154.45 84.39 153.06 85.31ZM166.7 85.19C165.25 85.97 165 87.78 165.77 88.98C166.54 90.18 168.27 90.48 169.46 89.72C170.65 88.96 170.99 87.24 170.22 86.03C169.53 84.95 168.01 84.49 166.7 85.19ZM180.02 85.27C178.47 86.22 178.49 88.2 179.45 89.28C180.26 90.2 181.75 90.44 182.93 89.71C184.11 88.98 184.41 87.29 183.68 86.06C183.05 85.01 181.45 84.39 180.01 85.27H180.02ZM193.5 85.25C191.95 86.18 191.9 88.14 192.91 89.29C193.66 90.14 195.14 90.52 196.39 89.7C197.44 89.01 197.85 87.37 197.14 86.11C196.53 85.03 194.99 84.36 193.5 85.25ZM207.01 85.22C205.4 86.09 205.42 87.9 206 88.81C206.88 90.19 208.43 90.42 209.6 89.82C210.9 89.15 211.24 87.56 210.77 86.45C210.18 85.05 208.58 84.36 207.01 85.21V85.22ZM220.47 85.2C218.88 86.02 218.84 87.85 219.46 88.83C220.29 90.13 221.8 90.45 223.03 89.8C224.26 89.15 224.7 87.66 224.2 86.49C223.63 85.15 222.08 84.38 220.47 85.2ZM233.61 85.37C232.21 86.37 232.36 88.25 233.1 89.17C234.03 90.33 235.64 90.44 236.81 89.59C237.88 88.81 238.15 87.27 237.5 86.19C236.75 84.95 235.03 84.36 233.61 85.37ZM33.03 98.33C31.22 98.83 30.61 100.56 31.22 102C31.69 103.1 32.94 103.94 34.57 103.43C35.57 103.12 36.69 101.7 36.18 100.09C35.89 99.18 34.56 97.92 33.03 98.34V98.33ZM46.51 98.32C44.77 98.74 44.17 100.37 44.54 101.66C44.93 103.02 46.28 103.82 47.69 103.5C49.1 103.18 49.97 101.96 49.64 100.3C49.44 99.28 48.19 97.91 46.5 98.32H46.51ZM60.01 98.32C58.25 98.71 57.61 100.3 57.97 101.69C58.33 103.08 59.6 103.81 61.18 103.51C62.42 103.27 63.38 101.98 63.1 100.34C62.93 99.33 61.7 97.95 60.01 98.32ZM87 98.3C85.2 98.64 84.47 100.39 84.79 101.54C85.21 103.02 86.47 103.75 87.73 103.56C89.28 103.32 90.26 102.01 89.97 100.34C89.79 99.32 88.62 98 87.01 98.31L87 98.3ZM167.5 98.31C165.75 98.69 165.06 100.28 165.45 101.68C165.81 102.97 167.08 103.82 168.67 103.5C169.89 103.25 170.86 101.98 170.59 100.35C170.42 99.33 169.2 97.95 167.5 98.32V98.31ZM5.13 98.84C3.68 99.96 3.96 101.76 4.69 102.59C5.77 103.83 7.3 103.83 8.34 103.06C9.59 102.14 9.65 100.6 9.07 99.59C8.29 98.22 6.46 97.81 5.12 98.85L5.13 98.84ZM18.61 98.82C17.15 99.92 17.37 101.7 18.16 102.6C19.17 103.76 20.72 103.88 21.81 103.04C22.95 102.16 23.1 100.61 22.54 99.61C21.78 98.24 19.97 97.79 18.62 98.82H18.61ZM72.5 98.72C70.98 99.71 71.04 101.71 71.98 102.75C72.81 103.67 74.34 103.83 75.42 103.16C76.64 102.41 76.92 100.66 76.21 99.5C75.5 98.34 73.91 97.8 72.49 98.72H72.5ZM99.65 98.57C97.99 99.38 97.91 101.22 98.54 102.26C99.43 103.73 100.96 103.85 102.06 103.29C103.47 102.56 103.65 100.98 103.25 99.93C102.68 98.41 101.05 97.89 99.64 98.57H99.65ZM112.62 98.84C111.22 99.92 111.5 101.77 112.19 102.59C113.24 103.84 114.8 103.82 115.84 103.05C117.06 102.15 117.11 100.59 116.56 99.59C115.8 98.22 113.98 97.79 112.62 98.84ZM126.1 98.81C124.66 99.89 124.89 101.72 125.66 102.6C126.67 103.76 128.2 103.88 129.31 103.04C130.42 102.2 130.59 100.64 130.03 99.62C129.28 98.26 127.46 97.79 126.1 98.81ZM139.57 98.79C138.04 99.88 138.33 101.81 139.12 102.67C140.13 103.77 141.65 103.77 142.52 103.21C143.96 102.28 144.01 100.51 143.31 99.43C142.57 98.28 140.91 97.83 139.56 98.79H139.57ZM153.04 98.76C151.5 99.83 151.77 101.75 152.58 102.71C153.49 103.78 155.04 103.77 155.99 103.2C157.39 102.35 157.48 100.59 156.77 99.48C156.06 98.37 154.4 97.83 153.04 98.77V98.76ZM180.17 98.62C178.7 99.42 178.42 101.19 179.26 102.46C179.99 103.57 181.71 103.95 182.92 103.16C184.07 102.4 184.39 100.64 183.72 99.52C183.05 98.4 181.47 97.91 180.17 98.62ZM193.47 98.7C191.91 99.67 191.92 101.62 192.93 102.77C193.7 103.65 195.15 103.9 196.35 103.14C197.48 102.42 197.86 100.77 197.16 99.56C196.51 98.45 194.92 97.8 193.47 98.7ZM206.64 98.86C205.2 99.98 205.56 101.78 206.23 102.57C207.33 103.88 208.88 103.79 209.86 103.06C211.18 102.09 211.18 100.56 210.6 99.57C209.79 98.18 207.98 97.81 206.64 98.86ZM220.12 98.84C218.68 99.94 218.94 101.75 219.68 102.6C220.73 103.81 222.27 103.85 223.34 103.06C224.53 102.18 224.62 100.6 224.06 99.6C223.3 98.23 221.48 97.8 220.12 98.84ZM233.58 98.82C232.2 99.85 232.36 101.73 233.13 102.63C234.08 103.74 235.69 103.91 236.78 103.05C237.87 102.19 238.1 100.64 237.51 99.66C236.7 98.31 235.01 97.75 233.58 98.82ZM6.03 111.81C4.27 112.36 3.75 114.18 4.33 115.42C4.91 116.66 6.21 117.28 7.61 116.87C8.92 116.48 9.8 115.05 9.28 113.5C8.93 112.45 7.66 111.3 6.04 111.81H6.03ZM19.52 111.8C17.78 112.32 17.17 114.13 17.78 115.45C18.32 116.61 19.6 117.32 21.08 116.87C22.28 116.51 23.22 115.1 22.73 113.53C22.41 112.5 21.17 111.31 19.52 111.8ZM33.18 111.74C31.56 112.06 30.65 113.58 31.1 115.1C31.47 116.38 32.84 117.38 34.55 116.85C35.63 116.52 36.66 115.1 36.2 113.55C35.88 112.49 34.67 111.44 33.19 111.73L33.18 111.74ZM46.5 111.79C44.72 112.22 44.15 113.82 44.55 115.15C44.95 116.48 46.28 117.23 47.69 116.94C49.1 116.65 49.94 115.39 49.66 113.79C49.47 112.71 48.17 111.39 46.51 111.79H46.5ZM59.99 111.78C58.24 112.19 57.58 113.75 57.98 115.17C58.33 116.4 59.67 117.24 61.12 116.91C62.44 116.61 63.39 115.47 63.09 113.79C62.91 112.75 61.68 111.38 59.98 111.77L59.99 111.78ZM73.47 111.77C71.73 112.13 71.04 113.73 71.43 115.18C71.76 116.41 73.01 117.28 74.6 116.91C75.82 116.63 76.82 115.55 76.55 113.82C76.4 112.83 75.18 111.42 73.46 111.77H73.47ZM86.98 111.76C85.17 112.1 84.46 113.86 84.79 115.02C85.21 116.5 86.48 117.12 87.72 116.96C89.3 116.76 90.23 115.42 89.97 113.81C89.79 112.73 88.59 111.45 86.97 111.75L86.98 111.76ZM100.05 111.82C98.25 112.4 97.87 114.21 98.38 115.38C98.97 116.74 100.3 117.27 101.62 116.87C103.02 116.45 103.78 114.99 103.31 113.43C103 112.39 101.63 111.31 100.05 111.82ZM113.51 111.81C111.77 112.33 111.28 114.17 111.82 115.45C112.36 116.73 113.7 117.29 115.09 116.88C116.39 116.49 117.24 115.07 116.75 113.51C116.41 112.45 115.16 111.32 113.51 111.81ZM127.2 111.75C125.55 112.11 124.74 113.62 125.15 115.11C125.52 116.45 126.93 117.36 128.58 116.88C129.72 116.55 130.68 115.07 130.22 113.55C129.9 112.48 128.66 111.43 127.2 111.75ZM140.5 111.79C138.71 112.27 138.06 114.02 138.73 115.47C139.22 116.53 140.45 117.34 142.04 116.86C143.12 116.54 144.12 115.15 143.67 113.56C143.38 112.54 142.16 111.35 140.5 111.79ZM153.99 111.79C152.22 112.21 151.64 113.8 152.03 115.18C152.39 116.46 153.77 117.24 155.18 116.94C156.59 116.64 157.41 115.4 157.14 113.78C156.96 112.7 155.68 111.38 153.99 111.78V111.79ZM167.5 111.78C165.74 112.18 165.06 113.74 165.47 115.17C165.82 116.4 167.14 117.22 168.62 116.9C169.91 116.62 170.88 115.5 170.59 113.8C170.42 112.79 169.17 111.4 167.5 111.78ZM181.16 111.74C179.43 111.99 178.43 113.52 178.92 115.18C179.27 116.37 180.49 117.28 182.11 116.9C183.25 116.64 184.27 115.51 184.04 113.82C183.9 112.79 182.71 111.51 181.16 111.73V111.74ZM194.06 111.83C192.25 112.44 191.93 114.26 192.42 115.37C193.04 116.78 194.4 117.26 195.65 116.88C197.1 116.44 197.86 114.92 197.36 113.42C197.01 112.37 195.61 111.31 194.06 111.83ZM207.55 111.82C205.74 112.4 205.34 114.2 205.87 115.39C206.47 116.73 207.78 117.29 209.12 116.88C210.46 116.47 211.33 114.99 210.81 113.45C210.47 112.43 209.11 111.32 207.55 111.82ZM221.01 111.81C219.27 112.34 218.73 114.17 219.31 115.44C219.89 116.71 221.17 117.3 222.59 116.87C223.88 116.48 224.74 115.07 224.25 113.51C223.92 112.45 222.67 111.31 221.02 111.81H221.01ZM234.69 111.75C233.04 112.1 232.23 113.62 232.64 115.11C233.01 116.44 234.41 117.37 236.07 116.88C237.19 116.55 238.16 115.07 237.71 113.55C237.39 112.48 236.15 111.44 234.69 111.75ZM6.18 125.22C4.58 125.59 3.8 127.22 4.22 128.52C4.7 130 6.11 130.77 7.6 130.32C8.97 129.91 9.77 128.44 9.3 126.98C8.92 125.8 7.69 124.87 6.19 125.22H6.18ZM19.5 125.27C17.7 125.79 17.16 127.56 17.8 128.95C18.32 130.08 19.61 130.75 21.07 130.32C22.28 129.97 23.19 128.51 22.76 127.02C22.43 125.91 21.16 124.8 19.51 125.27H19.5ZM32.99 125.26C31.18 125.75 30.56 127.49 31.25 128.95C31.74 130 33 130.76 34.49 130.29C35.66 129.92 36.65 128.58 36.21 127.03C35.9 125.94 34.66 124.8 32.99 125.25V125.26ZM46.48 125.24C44.74 125.66 44.12 127.3 44.56 128.62C45 129.94 46.33 130.68 47.64 130.37C49.09 130.04 49.92 128.8 49.67 127.26C49.48 126.06 48.24 124.81 46.47 125.24H46.48ZM234.49 125.26C232.69 125.77 232.16 127.54 232.79 128.95C233.28 130.06 234.59 130.73 236.05 130.31C237.25 129.96 238.17 128.52 237.73 127.02C237.41 125.91 236.15 124.79 234.49 125.26ZM145.54 161.85L145.57 146.75C142.83 146.54 139.02 147.36 137.91 150.35C136.07 155.28 131.31 158.07 126.38 156.92C121.19 155.71 119 151.22 119.09 146.02C119.17 141.49 120.42 137.68 124.61 135.76C128.24 134.1 132.66 134.81 135.57 137.95C137.04 139.53 139.58 139.65 141.17 138.04C142.39 136.8 142.8 134.41 141.2 132.72C136.93 128.22 130.8 126.44 124.31 127.9C119.39 129.01 114.49 132.97 112.44 138.45C111.39 141.25 111.68 144.05 111.55 147.03C111.28 153.52 114.3 159.43 120.22 162.31C126.14 165.19 132.37 164.84 137.98 161.84C137.93 165.45 136.02 168.5 133.46 169.84C130.46 171.41 127.12 171.4 124.26 169.76C121.2 168 117.4 169.09 115.36 171.85C121.01 179.11 131.1 180.68 138.51 175.53C142.92 172.47 145.52 167.4 145.53 161.86L145.54 161.85ZM185.46 161.85V146.7C182.63 146.61 179.19 147.3 178.06 149.99C176.37 154 173.42 156.92 169.16 157.14C165.14 157.35 160.85 155.05 159.67 150.82C158.89 148.02 159.03 144.91 159.47 142.03C160.02 138.49 163.29 135.92 166.05 135.21C169.75 134.26 173.05 135.37 175.52 137.97C177.11 139.63 179.79 139.55 181.17 137.97C182.65 136.27 182.44 133.91 180.68 132.23C176.2 127.95 170.03 126.33 163.54 128.09C158.71 129.4 153.94 133.56 152.15 139.13C151.31 141.73 151.64 144.3 151.51 147.01C151.19 153.53 154.28 159.45 160.2 162.32C166.12 165.19 172.35 164.82 177.95 161.83C177.8 165.29 176.15 168.26 173.74 169.65C171.08 171.18 167.62 171.61 164.95 170.07C161.58 168.13 157.61 168.68 155.31 171.86C160.69 178.7 169.86 180.52 177.32 176.27C182.36 173.4 185.45 167.88 185.46 161.87V161.85ZM225.03 151.9C225.85 147.91 225.89 143.66 225 139.92C223.15 132.15 215.87 127.3 208.26 127.38C200.65 127.46 193.79 132.31 191.99 139.92C191.07 143.81 191.15 148.21 191.99 152.08C193.67 159.81 200.79 164.22 208.5 164.21C216.21 164.2 223.39 159.85 225.02 151.9H225.03ZM91.38 163.87C91.18 160.32 88.8 156.51 85.02 156.46L68.42 156.27L87.66 137.7C89.25 136.16 89.38 133.72 88.53 131.78C87.83 130.18 86.01 128.78 83.77 128.78H59.04C59.12 132.18 60.91 136.06 64.19 136.15L78.19 136.53L58.55 155.04C57.05 156.45 56.54 158.49 57.19 160.51C57.61 161.82 59.05 163.79 61.12 163.79L91.37 163.87H91.38ZM105.66 157.82L105.57 128.73C102.64 128.81 98.32 131.04 98.29 134.6L98.05 163.9C101.72 163.84 104.75 161.57 105.65 157.82H105.66ZM6.17 138.66C4.56 139.05 3.79 140.67 4.22 142.01C4.65 143.35 6.15 144.19 7.52 143.77C8.89 143.35 9.72 141.86 9.29 140.47C8.91 139.24 7.64 138.3 6.16 138.66H6.17ZM19.08 138.85C17.43 139.64 17.17 141.54 18 142.72C18.72 143.75 20.14 144.21 21.35 143.63C22.65 143.01 23.22 141.44 22.61 140.13C22.07 138.98 20.6 138.12 19.08 138.85ZM32.55 138.82C30.87 139.59 30.57 141.48 31.45 142.75C32.13 143.74 33.5 144.25 34.82 143.61C36.03 143.03 36.69 141.49 36.07 140.16C35.54 139.03 34.09 138.11 32.55 138.82ZM46.05 138.8C44.41 139.52 44.09 141.27 44.73 142.48C45.37 143.69 46.83 144.18 48.02 143.72C49.47 143.16 50.01 141.72 49.56 140.29C49.19 139.12 47.66 138.1 46.05 138.8ZM234.08 138.82C232.4 139.62 232.18 141.49 232.99 142.73C233.67 143.78 235.08 144.22 236.34 143.61C237.6 143 238.21 141.46 237.59 140.14C237.06 139 235.6 138.09 234.07 138.82H234.08ZM5.57 152.32C3.88 153.19 3.79 155.05 4.57 156.17C5.35 157.29 6.79 157.61 7.87 157.09C9.3 156.39 9.77 154.75 9.18 153.52C8.59 152.29 7.06 151.56 5.57 152.32ZM19.04 152.3C17.35 153.13 17.21 155 18.03 156.19C18.76 157.25 20.17 157.65 21.33 157.09C22.71 156.43 23.16 154.85 22.61 153.61C22.06 152.37 20.58 151.55 19.04 152.3ZM32.53 152.29C30.87 153.08 30.59 154.97 31.49 156.22C32.19 157.18 33.59 157.68 34.81 157.08C36.1 156.45 36.66 154.9 36.09 153.64C35.52 152.38 34.12 151.54 32.54 152.29H32.53ZM46.05 152.26C44.41 153.01 44.08 154.75 44.76 155.97C45.38 157.09 46.94 157.63 48.01 157.18C49.47 156.57 50.02 155.11 49.59 153.78C49.2 152.56 47.62 151.54 46.05 152.26ZM234.03 152.3C232.4 153.08 232.18 155.01 233.01 156.21C233.71 157.22 235.17 157.64 236.33 157.08C237.67 156.43 238.17 154.86 237.61 153.62C237.05 152.38 235.62 151.55 234.03 152.3ZM5.54 165.78C3.85 166.66 3.8 168.54 4.59 169.66C5.38 170.78 6.82 171.05 7.85 170.55C9.34 169.83 9.74 168.18 9.18 167.01C8.57 165.73 7.02 165.01 5.54 165.79V165.78ZM19.19 165.68C17.62 166.33 17.17 168.03 17.86 169.36C18.51 170.62 20.09 171.14 21.33 170.54C22.74 169.86 23.18 168.23 22.64 167.04C22.04 165.72 20.6 165.09 19.19 165.68ZM32.67 165.67C31.14 166.28 30.56 167.98 31.3 169.39C31.9 170.53 33.49 171.16 34.75 170.51C36.11 169.81 36.64 168.33 36.09 167.1C35.49 165.76 34.11 165.09 32.66 165.67H32.67ZM46.15 165.64C44.6 166.19 44.12 167.94 44.62 169.14C45.23 170.6 46.87 171.09 48.18 170.51C49.49 169.93 50.11 168.32 49.44 166.9C48.95 165.85 47.58 165.14 46.15 165.65V165.64ZM234 165.77C232.37 166.57 232.17 168.51 233.02 169.69C233.75 170.7 235.19 171.07 236.3 170.54C237.72 169.86 238.13 168.28 237.61 167.09C237.03 165.74 235.59 164.99 233.99 165.77H234ZM80.25 213.48C77.41 215.76 74.29 216.74 70.71 215.65C64.42 213.74 63.09 207.06 64.56 200.57C65.56 196.16 69.98 193.56 74.23 193.84C78.31 194.11 82.29 197.22 82.78 201.66C83.02 203.84 83.46 205.69 85.08 206.76C86.7 207.83 88.42 208.21 90.52 207.87L90.38 180.04C90.36 176.14 86.27 173.65 82.65 174.23L82.55 188.73C77.42 185.92 71.74 185.33 66.03 187.99C62.15 189.79 58.18 193.78 56.95 198.91C56.34 201.44 56.62 203.9 56.53 206.53C56.32 212.96 59.69 218.75 65.6 221.44C71.51 224.13 78.86 223.66 84.27 219.85C86.12 218.55 86.43 216.27 85.37 214.45C84.48 212.92 82.15 211.98 80.26 213.49L80.25 213.48ZM5.68 179.14C4.04 179.87 3.77 181.72 4.44 182.87C5.23 184.22 6.81 184.5 8.08 183.86C9.25 183.27 9.73 181.69 9.21 180.51C8.64 179.21 7.11 178.5 5.68 179.14ZM19.18 179.12C17.54 179.84 17.2 181.66 17.91 182.87C18.68 184.18 20.18 184.53 21.52 183.82C22.65 183.22 23.2 181.78 22.67 180.53C22.14 179.28 20.63 178.47 19.18 179.11V179.12ZM32.46 179.2C30.85 179.97 30.7 181.75 31.35 182.88C32.06 184.12 33.53 184.6 34.97 183.81C36.01 183.24 36.63 181.86 36.11 180.61C35.59 179.36 34.15 178.39 32.46 179.2ZM45.58 179.36C44.07 180.34 44.23 182.34 45.03 183.25C45.99 184.36 47.49 184.44 48.53 183.77C49.81 182.94 50.08 181.23 49.28 179.99C48.62 178.97 47 178.44 45.59 179.35L45.58 179.36ZM234.14 179.12C232.52 179.78 232.2 181.64 232.89 182.88C233.58 184.12 235.12 184.56 236.49 183.82C237.61 183.21 238.16 181.84 237.64 180.6C237.07 179.24 235.69 178.49 234.15 179.12H234.14ZM165.15 197.82C165.21 194.5 169.81 193.62 172.5 193.81C174.97 193.98 178.46 195.22 178.5 198.02L178.83 223C182.05 223.79 186.32 221.36 186.32 217.46V198.01C186.32 192.43 181.98 188.13 176.8 186.74C171.62 185.35 165.03 185.88 160.95 189.77C156.39 185.31 147.89 185.02 142.29 187.85C138.58 189.73 135.68 193.65 135.66 198L135.53 222.99C137.82 223.45 139.81 222.75 141.4 221.21C142.69 219.96 143.22 218.1 143.22 215.97L143.19 198.98C143.19 196.78 144.57 195.16 146.51 194.46C149.22 193.47 152.08 193.45 154.64 194.87C156.09 195.67 157.12 197.24 157.12 198.98V223C161.03 223.79 164.74 221.04 164.81 216.94L165.15 197.81V197.82ZM120.15 221.9C126.43 219.34 129.99 213.56 129.91 207.02C129.88 204.16 130.15 201.37 129.34 198.61C127.16 191.14 120.23 186.43 112.75 186.47C105.27 186.51 98.46 191.33 96.35 198.8C95.59 201.48 95.9 204.22 95.84 207.01C95.71 213.8 99.6 219.67 105.96 222.05C110.48 223.74 115.46 223.82 120.15 221.91V221.9ZM199.52 200.8C200.58 196.18 205.09 193.74 209.19 194.03C213.29 194.32 216.86 197.22 217.73 201.47L210.21 201.8C207.57 202.5 206.45 205.4 207 207.98H225.5C225.5 204.88 225.86 201.88 225.06 198.89C223.1 191.55 216.4 186.76 209.24 186.48C201.73 186.19 194.98 190.59 192.27 197.73C191.3 200.29 191.74 202.83 191.52 205.5C190.77 214.21 196.34 221.56 205.03 223.01C211.36 224.07 217.71 222.38 222.1 217.37C220.36 214.95 217.38 213.42 214.4 214.39C211.62 216.11 208.7 216.9 205.21 215.71C199.33 213.65 198.05 207.21 199.52 200.8ZM5.5 192.71C3.88 193.58 3.83 195.35 4.47 196.32C5.34 197.64 6.84 197.93 8.03 197.29C9.31 196.61 9.7 195.13 9.23 193.96C8.67 192.58 7.05 191.87 5.5 192.71ZM18.62 192.86C17.18 193.91 17.36 195.72 18.12 196.66C19.06 197.82 20.67 197.91 21.81 197.09C22.95 196.27 23.16 194.74 22.51 193.68C21.74 192.42 20.02 191.85 18.62 192.87V192.86ZM32.1 192.84C30.68 193.85 30.78 195.68 31.59 196.67C32.45 197.73 34.1 197.98 35.27 197.07C36.3 196.28 36.57 194.79 35.97 193.75C35.21 192.43 33.55 191.81 32.1 192.84ZM45.57 192.81C44.04 193.84 44.23 195.8 45.05 196.73C45.98 197.78 47.53 197.84 48.5 197.23C49.85 196.39 50.04 194.65 49.27 193.48C48.57 192.41 46.95 191.87 45.57 192.81ZM233.61 192.85C232.21 193.86 232.37 195.73 233.11 196.66C234.02 197.78 235.68 197.93 236.8 197.08C237.84 196.29 238.14 194.7 237.51 193.69C236.72 192.43 235.02 191.83 233.6 192.86L233.61 192.85ZM5.12 206.34C3.66 207.45 3.96 209.25 4.69 210.08C5.76 211.31 7.3 211.31 8.33 210.55C9.58 209.63 9.64 208.08 9.07 207.08C8.29 205.71 6.46 205.32 5.12 206.34ZM18.61 206.32C17.15 207.41 17.38 209.22 18.16 210.1C19.19 211.27 20.7 211.35 21.81 210.54C22.99 209.67 23.09 208.13 22.53 207.11C21.78 205.75 19.96 205.3 18.6 206.32H18.61ZM32.06 206.3C30.61 207.33 30.78 209.16 31.62 210.12C32.56 211.19 34.11 211.43 35.26 210.53C36.3 209.72 36.59 208.15 36 207.17C35.19 205.84 33.5 205.28 32.06 206.3ZM45.54 206.27C43.99 207.32 44.27 209.27 45.1 210.18C46.06 211.24 47.56 211.26 48.49 210.68C49.91 209.8 50.01 208.05 49.29 206.95C48.57 205.85 46.9 205.34 45.54 206.26V206.27ZM233.59 206.32C232.17 207.37 232.38 209.22 233.15 210.11C234.13 211.24 235.71 211.38 236.79 210.53C237.87 209.68 238.08 208.1 237.53 207.12C236.76 205.76 234.97 205.29 233.59 206.31V206.32ZM6.01 219.31C4.26 219.84 3.75 221.68 4.32 222.93C4.89 224.18 6.21 224.77 7.59 224.36C8.97 223.95 9.77 222.54 9.27 220.99C8.92 219.92 7.66 218.81 6.01 219.3V219.31ZM19.69 219.25C18.11 219.59 17.24 221.19 17.65 222.6C18.06 224.01 19.48 224.87 21.09 224.39C22.26 224.04 23.19 222.55 22.74 221.04C22.41 219.95 21.18 218.93 19.69 219.25ZM33.01 219.29C31.21 219.78 30.58 221.53 31.24 222.97C31.73 224.04 32.98 224.86 34.55 224.36C35.63 224.02 36.67 222.63 36.2 221.05C35.89 220.03 34.66 218.83 33.01 219.28V219.29ZM46.66 219.24C44.9 219.55 44.09 221.17 44.55 222.65C44.97 224 46.32 224.74 47.69 224.44C49.06 224.14 49.93 222.85 49.66 221.28C49.46 220.13 48.19 218.98 46.67 219.24H46.66ZM234.7 219.25C233.05 219.61 232.23 221.09 232.65 222.61C233.02 223.93 234.41 224.9 236.05 224.36C237.18 223.99 238.19 222.58 237.71 221.05C237.38 219.97 236.16 218.93 234.69 219.25H234.7ZM6.18 232.71C4.57 233.08 3.8 234.71 4.21 236.01C4.68 237.49 6.09 238.22 7.57 237.79C8.95 237.39 9.76 235.95 9.28 234.47C8.9 233.31 7.66 232.36 6.17 232.7L6.18 232.71ZM19.49 232.76C17.69 233.28 17.17 235.05 17.8 236.43C18.32 237.57 19.6 238.22 21.05 237.8C22.26 237.45 23.17 235.98 22.73 234.51C22.4 233.39 21.13 232.28 19.49 232.76ZM32.73 232.8C31.18 233.35 30.57 235.04 31.25 236.46C31.83 237.67 33.36 238.35 34.84 237.64C36.01 237.08 36.71 235.54 36.07 234.18C35.54 233.04 34.16 232.29 32.73 232.8ZM46.06 232.85C44.43 233.53 44.1 235.28 44.72 236.5C45.34 237.72 46.8 238.21 48.03 237.75C49.45 237.22 50.03 235.8 49.55 234.31C49.18 233.19 47.69 232.17 46.06 232.85ZM59.55 232.83C57.92 233.5 57.54 235.22 58.17 236.52C58.74 237.68 60.16 238.25 61.5 237.75C62.84 237.25 63.47 235.88 62.97 234.37C62.61 233.28 61.2 232.15 59.54 232.83H59.55ZM73.18 232.73C71.53 233.22 70.89 234.99 71.61 236.56C72.09 237.6 73.61 238.28 74.96 237.72C76.13 237.24 76.94 235.86 76.44 234.38C76.06 233.26 74.74 232.26 73.17 232.73H73.18ZM86.52 232.79C84.74 233.4 84.42 235.25 84.93 236.35C85.57 237.71 87.01 238.14 88.13 237.81C89.67 237.37 90.36 235.79 89.88 234.38C89.48 233.21 88.14 232.23 86.52 232.78V232.79ZM100.02 232.78C98.22 233.36 97.86 235.2 98.39 236.37C99 237.7 100.33 238.17 101.61 237.82C103.06 237.42 103.75 235.91 103.31 234.42C102.99 233.32 101.59 232.28 100.01 232.79L100.02 232.78ZM113.5 232.76C111.71 233.3 111.31 235.13 111.86 236.38C112.41 237.63 113.71 238.2 115.08 237.81C116.45 237.42 117.21 235.95 116.77 234.5C116.42 233.36 115.14 232.28 113.5 232.77V232.76ZM127 232.76C125.2 233.28 124.68 235.05 125.3 236.45C125.79 237.57 127.11 238.21 128.56 237.8C129.77 237.46 130.67 236 130.24 234.52C129.92 233.4 128.65 232.29 127 232.76ZM140.08 232.87C138.4 233.61 138.08 235.47 138.94 236.78C139.6 237.78 140.95 238.28 142.35 237.64C143.51 237.11 144.18 235.58 143.57 234.18C143.09 233.08 141.65 232.18 140.09 232.87H140.08ZM153.55 232.84C151.92 233.52 151.58 235.27 152.21 236.49C152.84 237.71 154.27 238.23 155.53 237.75C156.93 237.22 157.5 235.81 157.03 234.31C156.68 233.19 155.19 232.16 153.55 232.84ZM167.05 232.83C165.43 233.49 165 235.21 165.65 236.56C166.18 237.66 167.66 238.24 169 237.74C170.34 237.24 170.98 235.89 170.48 234.37C170.13 233.3 168.72 232.15 167.06 232.83H167.05ZM180.5 232.81C178.87 233.4 178.41 235.12 179.1 236.56C179.58 237.56 181.04 238.3 182.46 237.72C183.6 237.26 184.42 235.91 183.93 234.39C183.58 233.3 182.25 232.18 180.5 232.8V232.81ZM194.02 232.79C192.23 233.39 191.91 235.24 192.43 236.36C193.05 237.7 194.49 238.15 195.63 237.82C197.15 237.38 197.84 235.82 197.37 234.39C196.99 233.25 195.62 232.25 194.02 232.79ZM207.69 232.72C206.05 233.12 205.38 234.75 205.76 236.02C206.23 237.57 207.69 238.21 209.12 237.81C210.55 237.41 211.32 235.89 210.84 234.42C210.47 233.28 209.13 232.36 207.7 232.71L207.69 232.72ZM221.17 232.7C219.56 233.05 218.8 234.65 219.21 236.06C219.62 237.47 221.06 238.24 222.57 237.79C223.85 237.42 224.69 235.92 224.26 234.49C223.91 233.31 222.66 232.37 221.17 232.7ZM234.49 232.76C232.69 233.27 232.17 235.04 232.8 236.45C233.29 237.57 234.6 238.22 236.06 237.8C237.26 237.46 238.17 235.99 237.74 234.52C237.41 233.4 236.15 232.29 234.5 232.75L234.49 232.76Z" fill="white"/>
<path d="M122.1 204.74C123.29 211.31 118.82 216.21 112.77 216.28C106.98 216.25 102.48 211.15 103.63 205.01C102.6 199.19 106.85 194.3 112.29 194.02C118.09 193.75 123.11 198.43 122.1 204.74Z" fill="white"/>
<path d="M217.71 145.73C218.88 152.14 214.48 156.97 208.74 157.16C202.74 157.27 198.12 152.25 199.27 146C198.17 140.01 202.53 135.07 208.25 134.88C213.89 134.79 218.78 139.45 217.71 145.73Z" fill="white"/>
</g>
<defs>
<clipPath id="clip0_174_237">
<rect width="242" height="242" fill="white"/>
</clipPath>
</defs>
</svg>
