<svg width="160" height="55" viewBox="0 0 160 55" fill="none" xmlns="http://www.w3.org/2000/svg">
<g clip-path="url(#clip0_2022_480)">
<path d="M88.7921 55C88.7203 54.8912 88.6653 54.6987 88.5765 54.6819C82.4051 53.5729 79.0616 48.7308 79.0658 42.1059C79.07 32.2626 78.9982 22.4152 79.1377 12.5719C79.2391 5.13088 83.4281 0.91653 90.876 0.372473C95.382 0.364102 99.8922 0.359917 104.398 0.351547C111.931 0.841199 116.394 5.043 116.504 12.2455C116.661 22.57 116.635 32.8987 116.504 43.2233C116.432 48.9359 113.279 52.8782 108.181 54.4099C107.475 54.6233 106.617 54.3095 106.051 54.9958H88.7921V55ZM108.587 24.6165C108.232 24.6374 108.067 24.5998 107.978 24.6625C101.3 29.3456 94.6296 34.0287 87.9636 38.7285C87.6382 38.9587 87.2535 39.2391 87.1182 39.5823C85.7571 42.9931 88.3356 46.9773 92.0638 47.0819C95.7751 47.1865 99.4906 47.1488 103.206 47.0944C106.651 47.0442 108.541 45.207 108.574 41.8003C108.629 36.1128 108.591 30.4254 108.591 24.6165H108.587ZM87.0844 31.0322C94.1942 26.0311 100.974 21.2643 107.75 16.4933C108.025 16.3008 108.363 16.0957 108.498 15.8195C109.902 12.8439 107.416 8.47893 104.064 8.33663C99.9387 8.16086 95.7962 8.19853 91.6665 8.31571C88.9781 8.39522 87.1647 10.1739 87.1182 12.8188C87.0168 18.7658 87.0844 24.7169 87.0844 31.0364V31.0322Z" fill="white"/>
<path d="M136.227 0.207478L136.836 0.10881C137.588 -2.64771e-05 137.914 0.00415858 138.252 -2.64771e-05C139.389 -0.014092 144.402 0.13813 147.645 0.108835C148.202 0.150685 148.76 0.292948 149.318 0.338984C154.89 0.820265 158.605 4.07624 159.835 9.43311C160.528 12.4589 160.161 15.5098 160.203 18.544C160.262 22.8044 158.694 26.1147 154.015 27.6088C157.908 28.5797 159.738 31.1787 160.063 34.623C160.368 37.8496 160.393 41.1558 160.046 44.3741C159.501 49.4255 156.758 52.9326 151.631 54.3597C150.988 54.5396 150.202 54.2174 149.703 54.887H134.549C134.287 54.1839 133.59 54.4476 133.104 54.3011C128.361 52.8489 125.347 49.2707 124.899 44.3574C124.658 41.7376 124.595 39.1093 124.726 36.4728C124.929 32.3588 126.205 28.9941 130.838 27.5628C126.598 26.1817 125.068 23.2396 124.781 19.3977C124.569 16.5561 124.62 13.7186 124.886 10.8895C125.394 5.50334 128.479 2.04649 133.776 0.648678C134.581 0.43617 135.082 0.318063 135.779 0.318063L136.227 0.207478ZM142.521 8.17759V8.16922C140.843 8.16922 139.161 8.08971 137.491 8.18596C134.655 8.35337 132.981 9.98135 132.812 12.7644C132.694 14.6937 132.689 16.6398 132.791 18.5649C132.96 21.7288 134.545 23.407 137.758 23.5786C140.894 23.746 144.052 23.7334 147.192 23.5828C150.303 23.4321 152.091 21.6744 152.235 18.8202C152.336 16.8197 152.336 14.8025 152.235 12.8021C152.091 10.0525 150.367 8.36592 147.556 8.19433C145.886 8.09389 144.204 8.17759 142.526 8.17759H142.521ZM142.428 46.994C144.107 46.994 145.789 47.0735 147.463 46.9772C150.346 46.8057 152.121 45.0312 152.239 42.2105C152.324 40.277 152.311 38.3309 152.239 36.3974C152.129 33.5725 150.392 31.7102 147.509 31.5888C144.157 31.4507 140.793 31.4674 137.441 31.593C134.723 31.6976 133.078 33.3842 132.812 36.0501C132.596 38.1886 132.588 40.3356 132.804 42.4741C133.083 45.2153 134.786 46.8433 137.601 46.9814C139.207 47.0609 140.818 46.994 142.424 46.9898L142.428 46.994Z" fill="white"/>
<path d="M51.3326 0.414326C51.3706 2.56126 51.3622 4.70819 51.4636 6.85513C51.5186 7.98509 51.0494 8.25293 49.9884 8.24038C45.922 8.19016 41.8557 8.2069 37.7893 8.22364C30.8909 8.25712 27.7883 11.3248 27.7629 18.1464C27.7544 19.9376 27.1373 22.3482 28.0503 23.361C29.1198 24.5412 31.601 23.6958 33.4651 23.7293C36.7579 23.7962 40.055 23.6874 43.3478 23.7795C50.018 23.9678 54.2323 27.7302 55.1538 34.1794C55.6864 37.9166 55.6357 41.6497 55.065 45.366C54.3211 50.2081 50.9353 53.6273 46.0827 54.5773C45.7022 54.6526 45.2161 54.4727 45.009 54.9916H29.8553C29.72 54.8577 29.6016 54.6317 29.441 54.6024C22.6694 53.1921 19.9599 48.509 19.8373 42.2816C19.6682 33.6813 19.7232 25.0727 19.8373 16.4724C19.8838 12.9946 20.6235 9.59215 22.6651 6.62495C25.81 2.07579 30.4935 0.648689 35.7308 0.364105C40.93 0.380845 46.1334 0.397586 51.3326 0.414326ZM35.8322 31.6348C33.5919 31.6348 31.3516 31.6976 29.1155 31.6097C27.9827 31.5637 27.7122 31.9529 27.7375 33.0117C27.8052 35.8492 27.7079 38.6908 27.7756 41.5283C27.8559 44.9433 29.6777 46.9354 32.9959 47.0651C36.2084 47.1907 39.4336 47.1823 42.6461 47.061C45.2204 46.9647 46.7167 45.5501 47.2578 43.0391C47.7143 40.9173 47.6044 38.7494 47.4057 36.6276C47.0845 33.1833 45.2415 31.6683 41.7077 31.6348C39.7506 31.6181 37.7893 31.6348 35.8322 31.6348Z" fill="white"/>
<path d="M11.9708 0.51895C12.0046 4.26039 12.0596 8.00183 12.0638 11.7433C12.0765 25.4033 12.0638 39.0633 12.0723 52.7275C12.0723 53.485 12.1441 54.2425 12.1864 55H4.18471C4.15089 54.2425 4.08326 53.485 4.08326 52.7275C4.07903 38.7494 4.04099 24.7672 4.12553 10.7891C4.13821 8.81791 3.82964 7.77165 1.57666 8.18179C0.946835 8.29478 0.0168973 8.41196 0.0718482 7.31966C0.190204 5.0137 -0.325489 2.67844 0.376191 0.397583C4.23966 0.439434 8.10313 0.477099 11.9666 0.51895H11.9708Z" fill="white"/>
<path d="M63.1174 55C63.1386 52.8489 63.2104 50.6978 63.1597 48.5466C63.1386 47.492 63.4175 47.04 64.5673 47.0944C66.3173 47.1781 68.0757 47.1907 69.8257 47.0944C71.0177 47.0275 71.2163 47.538 71.1783 48.5508C71.1064 50.7019 71.1276 52.8531 71.1149 55.0042H63.1174V55Z" fill="white"/>
</g>
<defs>
<clipPath id="clip0_2022_480">
<rect width="160" height="55" fill="white"/>
</clipPath>
</defs>
</svg>
