<svg width="221" height="24" viewBox="0 0 221 24" fill="none" xmlns="http://www.w3.org/2000/svg">
<path d="M0 9.13918H5.55332V18.2776H18.4185C19.0201 18.2776 19.5292 18.0469 19.992 17.6315C20.4085 17.17 20.6398 16.6623 20.6398 16.0623V7.84687C20.6398 7.24687 20.4085 6.69303 19.992 6.27764C19.5755 5.8161 19.0201 5.63149 18.4185 5.63149H0V0.046875H18.4185C20.5473 0.046875 22.3984 0.785336 23.9256 2.30841C25.4527 3.83149 26.2394 5.63149 26.2394 7.80072V16.0161C26.2394 17.4007 25.8692 18.7392 25.1751 19.893C24.4809 21.093 23.5091 22.0161 22.3521 22.7084C21.1489 23.4007 19.8531 23.7238 18.4648 23.7238H0V9.09303V9.13918Z" fill="white"/>
<path d="M29.3867 5.58534V0.046875H55.5799V5.58534H29.3867ZM29.3867 14.6776V9.13918H55.5799V14.6776H29.3867ZM29.3867 23.77V18.2315H55.5799V23.77H29.3867Z" fill="white"/>
<path d="M68.1661 14.2142H58.0312V9.92188H68.1661V14.2142Z" fill="white"/>
<path d="M90.656 14.6769H78.0222C75.986 14.6769 74.2737 13.9385 72.8391 12.5077C71.4045 11.0769 70.6641 9.36923 70.6641 7.33846C70.6641 5.30769 71.4045 3.6 72.8391 2.16923C74.2737 0.738461 75.986 0 78.0222 0H100.05V5.53846H78.0222C77.2818 5.53846 76.7727 5.81538 76.4488 6.41538C76.1711 7.01538 76.1711 7.61538 76.4488 8.21538C76.7264 8.81538 77.2818 9.09231 78.0222 9.09231H92.6922C94.7285 9.09231 96.4407 9.83077 97.8753 11.2615C99.3099 12.6923 100.05 14.4 100.05 16.4308C100.05 18.4615 99.3099 20.1692 97.8753 21.6C96.4407 23.0308 94.7285 23.7692 92.6922 23.7692H70.6641V18.2308H92.6922C93.2476 18.2308 93.7103 18.0462 93.988 17.6769C94.312 17.3077 94.4508 16.8923 94.4508 16.4308C94.4508 15.9692 94.312 15.5538 93.988 15.2308C93.6641 14.8615 93.2476 14.6769 92.6922 14.6769H90.656Z" fill="white"/>
<path d="M129.065 0.046875V5.58534H118.329V23.77H112.775V5.58534H102.039V0.046875H129.065Z" fill="white"/>
<path d="M160.767 7.56995V16.2469C160.767 18.4161 160.027 20.2161 158.5 21.6469C156.973 23.0776 155.168 23.77 152.993 23.77H139.017C136.842 23.77 135.037 23.0776 133.51 21.6469C131.983 20.2161 131.242 18.4161 131.242 16.2469V7.56995C131.242 5.40072 131.983 3.60072 133.51 2.16995C135.037 0.739182 136.842 0.046875 139.017 0.046875H152.993C155.168 0.046875 156.973 0.739182 158.5 2.16995C160.027 3.60072 160.767 5.40072 160.767 7.56995ZM155.168 16.2469V7.56995C155.168 6.23149 154.427 5.58534 152.946 5.58534H138.971C137.49 5.58534 136.749 6.23149 136.749 7.56995V16.2469C136.749 17.5853 137.49 18.2315 138.971 18.2315H152.946C154.427 18.2315 155.168 17.5853 155.168 16.2469Z" fill="white"/>
<path d="M171.919 0.046875H190.338V5.58534H171.919C171.318 5.58534 170.762 5.81611 170.346 6.23149C169.883 6.69303 169.698 7.20072 169.698 7.80072V16.0161C169.698 16.6161 169.929 17.17 170.346 17.5853C170.809 18.0469 171.318 18.2315 171.919 18.2315H190.338V23.77H171.919C169.744 23.77 167.939 23.0315 166.412 21.5084C164.885 19.9853 164.145 18.1853 164.145 16.0161V7.80072C164.145 5.63149 164.885 3.83149 166.412 2.30841C167.939 0.785336 169.744 0.046875 171.919 0.046875Z" fill="white"/>
<path d="M199.366 14.6776V23.77H193.812V0.046875H199.366V9.13918H203.299L212.416 0.046875H220.283L208.205 12.093L219.867 23.77H212L202.883 14.6776H199.366Z" fill="white"/>
</svg>
