<svg width="120" height="90" viewBox="0 0 120 90" fill="none" xmlns="http://www.w3.org/2000/svg">
<path fill-rule="evenodd" clip-rule="evenodd" d="M4.29699 5.54975C16.1163 -5.91667 48.7549 0.97272 78.5541 20.8006H60.1384C36.2356 7.80847 12.5969 4.11347 4.01306 12.91C1.57656 15.4071 0.566307 18.673 0.81722 22.4454C-0.939173 15.5739 0.0974957 9.65597 4.29699 5.54975ZM102.16 24.0963H114.633L107.198 32.9285H94.738L102.16 24.0963Z" fill="white"/>
<path fill-rule="evenodd" clip-rule="evenodd" d="M96.6815 53.3652C101.541 61.3333 102.439 68.4373 98.22 72.7521C90.8114 80.3268 70.0913 76.7987 49.556 65.1356H36.7726C45.6883 71.1874 55.4872 76.0989 65.8918 79.7309V79.7309C66.7898 80.0348 67.6878 80.3268 68.5726 80.5831C68.8103 80.6606 69.048 80.7261 69.2857 80.7917C69.946 80.9824 70.5667 81.1671 71.2006 81.34L72.0458 81.5605C72.6599 81.7214 73.2607 81.8704 73.8616 82.0075L74.6143 82.1862C75.4133 82.365 76.199 82.526 76.9782 82.6749H77.0905C77.9026 82.8239 78.7016 82.955 79.4939 83.0683L80.1542 83.1577C80.7155 83.2352 81.2701 83.3067 81.8248 83.3603L82.5841 83.4378C83.119 83.4855 83.6406 83.5212 84.1622 83.551L84.8225 83.5868C85.5225 83.5868 86.2092 83.6344 86.8761 83.6285H86.9487C87.609 83.6285 88.3155 83.5927 88.9758 83.5451L89.5569 83.4974C90.0191 83.4557 90.4747 83.408 90.9171 83.3543L91.5774 83.259C92 83.1934 92.4226 83.116 92.832 83.0325L93.38 82.9133C93.9413 82.7822 94.4827 82.6392 95.0109 82.4723H95.0506C95.5788 82.2995 96.0872 82.1028 96.5824 81.8763L97.0248 81.6737C97.3616 81.5128 97.6851 81.3459 98.0087 81.1731L98.4709 80.899C98.7746 80.7142 99.0586 80.5175 99.3425 80.303C99.468 80.2136 99.6 80.1242 99.7189 80.0288C100.11 79.7275 100.476 79.4008 100.815 79.0515C106.276 73.5209 104.255 63.896 96.6815 53.3652Z" fill="white"/>
<path fill-rule="evenodd" clip-rule="evenodd" d="M78.56 32.7382H62.7129V60.2004H52.5773V32.7382H39.8335C41.8619 35.5357 42.9448 38.8053 42.9501 42.1486V42.1486C42.9501 52.0774 33.4418 60.2004 21.8206 60.2004H0.69104V24.0967H21.8206C27.1742 24.0718 32.3487 25.836 36.3471 29.0492V24.0967H83.2943C113.371 45.7661 127.864 72.6442 115.689 84.4563C103.513 96.2684 69.1508 88.5864 38.612 67.2865C65.3012 84.4087 93.9252 90.3326 103.618 80.3978C110.307 73.5561 106.26 60.8918 94.7439 47.6911L84.2452 60.1766H72.0693V59.8548L88.0815 40.7838C85.0614 37.9575 81.8834 35.2722 78.56 32.7382V32.7382ZM10.8134 32.7382V51.5589H21.8206C27.8557 51.5589 32.8344 47.3037 32.8344 42.1486C32.8344 36.9934 27.8623 32.7382 21.8206 32.7382H10.8134Z" fill="white"/>
</svg>
