<svg width="160" height="42" viewBox="0 0 160 42" fill="none" xmlns="http://www.w3.org/2000/svg">
<path d="M0 0V2.49836H27.3846L19.586 8.91227H0V11.4106H16.5498L0 26.0501V29.2352L20.4492 11.4106H27.3995L0 34.8163V38.0013L34.3498 8.91227H23.4704L34.3201 0H0Z" fill="white"/>
<path d="M0 41.739H33.7253V39.2302H6.8857L33.7253 15.7356V12.4593L0 41.739Z" fill="white"/>
<path d="M59.7987 9.34463H61.8293V23.673H59.5615V14.7723L55.8116 20.5307H54.1219L50.3571 14.8775V23.673H48.0894V9.34463H50.12L54.9816 17.4034L59.7987 9.34463Z" fill="white"/>
<path d="M72.6206 20.7594C73.0634 20.1999 73.2848 19.4049 73.2848 18.3743C73.2848 17.3289 73.0634 16.5192 72.6206 15.945C72.1777 15.3855 71.5283 15.091 70.7017 15.091C69.8899 15.091 69.2552 15.3855 68.7977 15.9744C68.3401 16.5633 68.1187 17.3731 68.1187 18.4037C68.1187 19.4343 68.3401 20.2146 68.7977 20.7741C69.2552 21.3336 69.8899 21.5986 70.7313 21.5986C71.5431 21.6133 72.1777 21.3336 72.6206 20.7594ZM75.7202 13.4273V23.3948H73.2848V21.79C72.9896 22.3495 72.5468 22.7765 71.9859 23.0856C71.425 23.3948 70.7755 23.5568 70.0523 23.5568C69.1814 23.5568 68.4139 23.3506 67.735 22.9237C67.0707 22.4967 66.5394 21.9078 66.1704 21.1275C65.8014 20.3472 65.6095 19.449 65.6095 18.4184C65.6095 17.3878 65.8014 16.4897 66.1704 15.6947C66.5394 14.8996 67.0707 14.2813 67.735 13.8396C68.4139 13.3979 69.1667 13.177 70.0228 13.177C70.746 13.177 71.3955 13.339 71.9563 13.6482C72.5172 13.9574 72.96 14.3843 73.2552 14.9438V13.4421H75.7202V13.4273Z" fill="white"/>
<path d="M85.9639 13.3538L85.9491 15.6064C85.5211 15.4297 85.0931 15.3561 84.6355 15.3561C83.7942 15.3561 83.1447 15.6064 82.7019 16.0922C82.2591 16.5781 82.0377 17.2259 82.0377 18.021V23.4096H79.5875V16.2395C79.5875 15.1941 79.5285 14.2519 79.4252 13.4126H81.7425L81.9344 15.1647C82.1853 14.5169 82.5838 14.031 83.1152 13.6924C83.6613 13.3538 84.2665 13.1771 84.9602 13.1771C85.3587 13.1918 85.6835 13.236 85.9639 13.3538Z" fill="white"/>
<path d="M98.6769 23.6731H95.5644L91.1563 18.942V23.6731H88.6842V8.72173H91.1563V17.9564L95.3112 13.4376H98.3195L93.7922 18.3355L98.6769 23.6731Z" fill="white"/>
<path d="M103.719 15.2828V19.7439C103.719 20.9217 104.265 21.4959 105.357 21.4959C105.653 21.4959 105.992 21.437 106.346 21.334V23.2921C105.918 23.4541 105.387 23.5277 104.767 23.5277C103.631 23.5277 102.76 23.2185 102.155 22.5854C101.549 21.9523 101.239 21.0395 101.239 19.8617V15.2828H99.3206V13.4277H101.239V10.9984L103.704 10.1739V13.4277H106.346V15.2828H103.719Z" fill="white"/>
<path d="M112.843 21.5982H120.537V23.673H109.92V21.7786L117.341 11.4195H109.92V9.34463H120.31V11.209L112.843 21.5982Z" fill="white"/>
<path d="M123.794 13.3912H126.024V23.6731H123.794V13.3912ZM123.66 8.72173H126.158V11.2314H123.66V8.72173Z" fill="white"/>
<path d="M131.808 22.9086C131.04 22.4816 130.45 21.8927 130.051 21.1271C129.638 20.3615 129.431 19.4487 129.431 18.4181C129.431 17.3874 129.638 16.4599 130.066 15.6796C130.494 14.8845 131.099 14.2809 131.881 13.8392C132.664 13.3975 133.579 13.1767 134.597 13.1767C135.306 13.1767 136 13.2944 136.664 13.5153C137.328 13.7361 137.859 14.0453 138.258 14.4428L137.564 16.1802C137.136 15.8415 136.693 15.5765 136.221 15.3998C135.749 15.2232 135.276 15.1348 134.819 15.1348C133.918 15.1348 133.225 15.4146 132.723 15.974C132.221 16.5335 131.97 17.3433 131.97 18.3886C131.97 19.4487 132.221 20.2437 132.708 20.7885C133.195 21.3479 133.904 21.6129 134.819 21.6129C135.276 21.6129 135.749 21.5246 136.221 21.3332C136.693 21.1565 137.136 20.8915 137.564 20.5382L138.258 22.2755C137.83 22.673 137.284 22.9822 136.619 23.203C135.94 23.4239 135.247 23.5417 134.509 23.5417C133.476 23.5417 132.575 23.3355 131.808 22.9086Z" fill="white"/>
<path d="M150.42 17.2695V23.3795H147.955V17.3873C147.955 16.5922 147.808 16.018 147.498 15.6647C147.188 15.2966 146.73 15.1199 146.096 15.1199C145.343 15.1199 144.738 15.3555 144.28 15.8413C143.823 16.3272 143.586 16.9603 143.586 17.7406V23.3795H141.136V8.87736H143.586V14.8696C143.926 14.3249 144.383 13.9126 144.944 13.6182C145.505 13.3237 146.14 13.1765 146.848 13.1765C149.225 13.1765 150.42 14.531 150.42 17.2695Z" fill="white"/>
<path d="M157.373 15.2817V19.7428C157.373 20.9207 157.919 21.4949 159.011 21.4949C159.306 21.4949 159.646 21.436 160 21.3329V23.2911C159.572 23.453 159.04 23.5266 158.421 23.5266C157.284 23.5266 156.413 23.2175 155.808 22.5844C155.203 21.9513 154.893 21.0384 154.893 19.8606V15.2817H152.974V13.4267H154.893V10.9974L157.358 10.1729V13.4267H160V15.2817H157.373Z" fill="white"/>
<path d="M48.0894 33.6408V26.7881H52.4612V27.4346H48.8711V29.8194H52.2585V30.4946H48.8711V32.9799H52.4612V33.6408H48.0894Z" fill="white"/>
<path d="M57.0924 32.8913V33.5686C56.9743 33.598 56.871 33.6275 56.7529 33.6422C56.6496 33.6569 56.5315 33.6716 56.3986 33.6716C55.9411 33.6716 55.5721 33.5391 55.2916 33.2741C55.0112 33.0091 54.8784 32.6116 54.8784 32.0963V27.3702L55.6754 27.0905V31.9932C55.6754 32.2582 55.7049 32.4644 55.7935 32.6116C55.8673 32.7588 55.9706 32.8619 56.1034 32.906C56.2363 32.9649 56.3839 32.9944 56.5462 32.9944C56.6496 32.9944 56.7381 32.9944 56.8119 32.9797C56.9005 32.9502 56.9891 32.9355 57.0924 32.8913ZM53.9189 28.6511H57.1071V29.2842H53.9189V28.6511Z" fill="white"/>
<path d="M62.8338 33.0089C62.6124 33.215 62.332 33.377 61.9925 33.4948C61.653 33.6125 61.2988 33.6714 60.9445 33.6714C60.4279 33.6714 59.9851 33.5684 59.6161 33.3622C59.2471 33.1561 58.9519 32.8617 58.76 32.4789C58.5534 32.0961 58.4648 31.6397 58.4648 31.0949C58.4648 30.5796 58.5682 30.1379 58.76 29.7404C58.9519 29.3576 59.2324 29.0484 59.5866 28.8276C59.9409 28.6067 60.3394 28.5037 60.8117 28.5037C61.2545 28.5037 61.6383 28.6067 61.9482 28.7981C62.273 28.9895 62.5091 29.2693 62.6715 29.6373C62.8338 30.0054 62.9224 30.4324 62.9224 30.933V31.0802H59.1733V30.5502H62.4796L62.2287 30.9182C62.2434 30.344 62.1254 29.9023 61.8892 29.5932C61.653 29.284 61.2988 29.1367 60.8412 29.1367C60.3541 29.1367 59.9851 29.2987 59.7047 29.6373C59.439 29.976 59.2914 30.4471 59.2914 31.036C59.2914 31.6838 59.439 32.1697 59.7195 32.4936C59.9999 32.8175 60.4279 32.9942 60.9741 32.9942C61.2693 32.9942 61.5497 32.95 61.8154 32.8469C62.0811 32.7439 62.332 32.6114 62.5829 32.4053L62.8338 33.0089Z" fill="white"/>
<path d="M64.8413 33.6125V30.0495C64.8413 29.8139 64.8413 29.5931 64.8266 29.3575C64.8118 29.1219 64.797 28.8864 64.7675 28.6655H65.535L65.6236 29.6961L65.5203 29.7698C65.6531 29.3722 65.8893 29.0631 66.214 28.8569C66.5387 28.6508 66.9077 28.5477 67.3358 28.5477C68.5313 28.5477 69.1217 29.1956 69.1217 30.5059V33.6272H68.3247V30.5501C68.3247 30.0937 68.2361 29.755 68.0443 29.5342C67.8524 29.3133 67.5719 29.2103 67.1734 29.2103C66.7158 29.2103 66.3468 29.3575 66.0664 29.6373C65.786 29.917 65.6531 30.2998 65.6531 30.7856V33.6272H64.8413V33.6125Z" fill="white"/>
<path d="M75.1136 33.6716C74.6561 33.6716 74.2575 33.598 73.9181 33.436C73.5786 33.274 73.3129 33.0679 73.121 32.7882C72.9291 32.5232 72.8406 32.1993 72.8406 31.8312C72.8406 31.4042 72.9734 31.0067 73.2539 30.6534C73.5195 30.3 73.9771 29.9614 74.597 29.5933C75.0251 29.343 75.3646 29.1222 75.6007 28.9455C75.8369 28.7688 76.014 28.5921 76.1026 28.4449C76.2059 28.2977 76.2502 28.121 76.2502 27.9443C76.2502 27.694 76.1764 27.4879 76.014 27.3407C75.8516 27.1934 75.645 27.1051 75.3941 27.1051C75.0989 27.1051 74.8775 27.1934 74.7004 27.3554C74.5232 27.5174 74.4347 27.7382 74.4347 28.0179C74.4347 28.1504 74.4494 28.2682 74.4937 28.4007C74.538 28.5185 74.6118 28.651 74.7299 28.813C74.848 28.9602 74.9956 29.1516 75.2022 29.3872L77.6081 32.1109C77.7852 32.3023 77.9919 32.4937 78.228 32.6704C78.4642 32.8471 78.7446 32.9943 79.0546 33.1268L78.6265 33.6863C78.3018 33.5391 78.0066 33.3624 77.7557 33.1857C77.5048 33.009 77.2981 32.8176 77.1062 32.6115L74.5527 29.7405C74.3313 29.4902 74.1542 29.2694 74.0214 29.078C73.8885 28.8866 73.8 28.7099 73.7409 28.548C73.6819 28.386 73.6524 28.2093 73.6524 28.0327C73.6524 27.7235 73.7262 27.4585 73.8738 27.2229C74.0214 27.002 74.228 26.8254 74.4789 26.6929C74.7446 26.5604 75.0398 26.5015 75.3793 26.5015C75.8664 26.5015 76.2502 26.634 76.5306 26.8843C76.811 27.1346 76.9586 27.4879 76.9586 27.9149C76.9586 28.1799 76.8996 28.4155 76.7815 28.6363C76.6634 28.8571 76.4568 29.078 76.1764 29.2988C75.8959 29.5197 75.5122 29.7847 75.0251 30.0792C74.6856 30.2706 74.4199 30.462 74.2133 30.6386C74.0066 30.8153 73.859 31.0067 73.7705 31.1834C73.6819 31.3895 73.6376 31.5956 73.6376 31.8165C73.6376 32.1845 73.7705 32.479 74.0361 32.6999C74.3018 32.9207 74.6708 33.0238 75.1284 33.0238C75.6302 33.0238 76.0583 32.8765 76.4273 32.5821C76.7963 32.2876 77.1063 31.8754 77.3129 31.3453C77.5343 30.8153 77.6524 30.1969 77.6671 29.4755H78.3756C78.3609 30.1086 78.2575 30.6828 78.0952 31.1981C77.9328 31.7134 77.6967 32.1551 77.4015 32.5232C77.1062 32.8913 76.7668 33.171 76.383 33.3771C76.014 33.5685 75.586 33.6716 75.1136 33.6716Z" fill="white"/>
<path d="M83.1147 32.9202H84.6202C85.5353 32.9202 86.2143 32.6846 86.6719 32.2135C87.1294 31.7424 87.3656 31.0357 87.3656 30.0934C87.3656 28.2236 86.4505 27.2813 84.635 27.2813H83.1294V32.9202H83.1147ZM82.3029 33.6122V26.5893H84.6645C85.4172 26.5893 86.0519 26.7218 86.5833 27.0016C87.1147 27.2813 87.5132 27.6788 87.7936 28.1941C88.0741 28.7094 88.2069 29.3425 88.2069 30.0934C88.2069 30.8443 88.0741 31.4774 87.7936 32.0074C87.5132 32.5227 87.1147 32.9349 86.5833 33.1999C86.0519 33.4797 85.4172 33.6122 84.6792 33.6122H82.3029Z" fill="white"/>
<path d="M90.2727 33.6125V30.0495C90.2727 29.8139 90.2726 29.5931 90.2579 29.3575C90.2431 29.1219 90.2284 28.8864 90.1989 28.6655H90.9664L91.0697 29.8875L90.9664 29.8581C91.0549 29.4164 91.2616 29.0925 91.5568 28.8717C91.8667 28.6508 92.2062 28.5477 92.59 28.5477C92.6785 28.5477 92.7524 28.5477 92.8262 28.5625C92.9 28.5772 92.9738 28.5919 93.0328 28.6066L93.018 29.3428C92.8704 29.2839 92.6933 29.2692 92.4867 29.2692C92.1472 29.2692 91.8667 29.3428 91.6601 29.49C91.4535 29.6373 91.3059 29.8287 91.2025 30.0642C91.0992 30.2998 91.0549 30.5501 91.0549 30.8004V33.6272H90.2727V33.6125Z" fill="white"/>
<path d="M94.4006 33.6408H95.4226V28.8296H94.4006V33.6408ZM94.306 27.6732H95.5551V26.7881H94.306V27.6732Z" fill="white"/>
<path d="M97.5793 33.6126V30.0497C97.5793 29.8141 97.5793 29.5933 97.5645 29.3577C97.5498 29.1221 97.535 28.8866 97.5055 28.6657H98.273L98.3616 29.6963L98.2583 29.7699C98.3911 29.3724 98.6273 29.0632 98.952 28.8571C99.2767 28.651 99.6457 28.5479 100.074 28.5479C101.269 28.5479 101.86 29.1957 101.86 30.5061V33.6274H101.063V30.5503C101.063 30.0938 100.974 29.7552 100.782 29.5344C100.59 29.3135 100.31 29.2105 99.9114 29.2105C99.4538 29.2105 99.0848 29.3577 98.8044 29.6374C98.5239 29.9172 98.3911 30.3 98.3911 30.7858V33.6274H97.5793V33.6126Z" fill="white"/>
<path d="M107.651 33.6257L104.934 31.0228L107.43 28.541H108.449L105.672 31.265L105.702 30.7505L108.67 33.6408H107.651V33.6257ZM104.299 26.1652H105.096V33.6257H104.299V26.1652Z" fill="white"/>
<path d="M113.83 33.0091C113.609 33.2152 113.329 33.3771 112.989 33.4949C112.65 33.6127 112.295 33.6716 111.941 33.6716C111.425 33.6716 110.982 33.5685 110.613 33.3624C110.244 33.1563 109.949 32.8618 109.757 32.479C109.55 32.0962 109.461 31.6398 109.461 31.0951C109.461 30.5798 109.565 30.1381 109.757 29.7406C109.949 29.3578 110.229 29.0486 110.583 28.8277C110.938 28.6069 111.336 28.5038 111.808 28.5038C112.251 28.5038 112.635 28.6069 112.945 28.7983C113.27 28.9897 113.506 29.2694 113.668 29.6375C113.83 30.0056 113.919 30.4325 113.919 30.9331V31.0804H110.17V30.5503H113.476L113.225 30.9184C113.24 30.3442 113.122 29.9025 112.886 29.5933C112.65 29.2842 112.295 29.1369 111.838 29.1369C111.351 29.1369 110.982 29.2989 110.701 29.6375C110.436 29.9761 110.288 30.4473 110.288 31.0362C110.288 31.684 110.436 32.1699 110.716 32.4938C110.997 32.8177 111.425 32.9943 111.971 32.9943C112.266 32.9943 112.546 32.9502 112.812 32.8471C113.078 32.7441 113.329 32.6116 113.58 32.4054L113.83 33.0091Z" fill="white"/>
<path d="M115.823 33.612V30.0491C115.823 29.8135 115.823 29.5927 115.808 29.3571C115.793 29.1215 115.778 28.886 115.749 28.6651H116.516L116.605 29.6957L116.502 29.7693C116.635 29.3718 116.871 29.0626 117.195 28.8565C117.52 28.6504 117.889 28.5473 118.317 28.5473C119.513 28.5473 120.103 29.1951 120.103 30.5055V33.6268H119.306V30.5497C119.306 30.0932 119.218 29.7546 119.026 29.5338C118.834 29.3129 118.553 29.2099 118.155 29.2099C117.697 29.2099 117.328 29.3571 117.048 29.6368C116.767 29.9166 116.635 30.2994 116.635 30.7852V33.6268H115.823V33.612Z" fill="white"/>
</svg>
